<?xml version="1.0" standalone="no"?>
<!DOCTYPE svg PUBLIC "-//W3C//DTD SVG 20010904//EN"
 "http://www.w3.org/TR/2001/REC-SVG-20010904/DTD/svg10.dtd">
<svg version="1.0" xmlns="http://www.w3.org/2000/svg"
 width="1476.000000pt" height="1476.000000pt" viewBox="0 0 1476.000000 1476.000000"
 preserveAspectRatio="xMidYMid meet">
<metadata>
Created by potrace 1.14, written by Peter Selinger 2001-2017
</metadata>
<g transform="translate(0.000000,1476.000000) scale(0.100000,-0.100000)"
fill="#000000" stroke="none">
<path d="M7348 14702 c3 -42 0 -63 -10 -73 -40 -40 -46 -62 -43 -163 3 -92 5
-100 29 -120 47 -39 51 -106 8 -152 -38 -40 -43 -62 -37 -142 8 -100 12 -111
46 -140 24 -20 29 -31 29 -69 0 -50 -14 -83 -35 -83 -20 0 -28 -56 -23 -154 3
-68 8 -86 26 -104 12 -12 23 -25 23 -29 9 -62 -4 -122 -33 -143 -17 -13 -27
-65 -25 -139 2 -78 3 -81 38 -115 28 -28 36 -43 37 -76 2 -36 -3 -46 -38 -80
-43 -42 -43 -42 -42 -172 0 -63 3 -70 30 -93 26 -22 29 -31 28 -77 -1 -39 -8
-62 -26 -88 -21 -30 -25 -46 -26 -120 -1 -89 12 -139 46 -175 28 -30 18 -87
-22 -126 -31 -30 -32 -32 -34 -127 -2 -99 3 -118 42 -156 12 -12 18 -35 18
-71 1 -30 4 -56 7 -59 9 -9 71 -15 94 -10 17 4 20 11 17 40 -7 54 4 78 51 111
l45 31 1 104 c2 91 0 106 -18 125 -11 12 -29 24 -40 28 -13 4 -22 19 -26 46
-7 38 -5 43 31 76 44 40 44 39 51 162 l5 94 -41 38 c-36 32 -42 43 -43 78 0
33 5 45 25 61 26 21 53 82 43 99 -4 5 -3 12 2 15 4 2 5 34 2 71 -5 56 -9 69
-33 88 -21 17 -28 32 -31 67 -4 45 15 100 34 100 16 0 29 72 27 150 l-2 75
-43 33 c-41 33 -42 34 -39 87 3 47 9 60 45 99 44 48 46 56 44 166 -1 50 -4 58
-37 85 -30 26 -37 39 -42 82 -5 48 -3 52 34 91 21 22 39 48 39 59 9 126 8 128
-31 172 -30 32 -37 49 -41 95 -5 55 -5 56 36 94 l41 38 2 79 c1 93 -16 135
-62 155 -31 12 -47 51 -42 98 2 21 -1 22 -56 22 l-59 0 4 -58z m100 -196 c5
-53 -2 -64 -32 -59 -23 5 -26 10 -26 47 0 49 6 58 35 54 15 -2 21 -12 23 -42z
m-1 -374 c15 -9 14 -84 -1 -94 -5 -4 -18 -2 -28 3 -21 11 -25 68 -6 87 14 14
19 14 35 4z m14 -434 c9 -16 7 -84 -3 -94 -4 -3 -16 -3 -28 1 -18 6 -21 13
-19 53 1 26 4 50 6 54 6 11 35 2 44 -14z m0 -483 c8 -50 3 -65 -26 -65 -26 0
-35 17 -35 64 0 39 7 48 34 44 16 -2 22 -13 27 -43z m-5 -399 c3 -13 4 -37 2
-52 -2 -23 -8 -29 -28 -29 -23 0 -25 3 -26 53 -1 48 0 52 22 52 17 0 25 -7 30
-24z m4 -456 c0 -47 -2 -50 -25 -50 -22 0 -25 4 -25 34 0 47 9 66 31 66 16 0
19 -8 19 -50z m0 -420 c0 -46 -2 -50 -24 -50 -19 0 -24 6 -30 38 -9 59 -8 62
24 62 29 0 30 -1 30 -50z"/>
<path d="M8368 12507 c-209 -218 -348 -387 -348 -424 0 -13 8 -31 18 -41 10
-10 50 -61 90 -113 39 -52 99 -128 132 -169 57 -71 97 -122 207 -268 26 -35
55 -72 63 -82 8 -10 24 -31 35 -46 11 -15 32 -43 48 -63 15 -20 34 -45 42 -55
23 -31 66 -23 172 29 54 27 100 51 103 55 5 7 43 22 49 20 2 -1 7 2 10 8 3 5
40 27 81 49 182 97 320 181 320 195 0 14 -80 28 -182 33 -56 3 -116 6 -131 9
-25 3 -32 -3 -62 -50 -73 -113 -210 -152 -303 -85 -63 44 -27 176 76 278 103
102 170 146 327 216 71 31 119 59 136 79 23 26 44 70 126 256 28 64 11 70 -95
36 -23 -8 -46 -13 -50 -12 -4 0 -14 -2 -22 -5 -13 -5 -117 -34 -146 -40 -30
-7 -62 -40 -84 -88 -14 -30 -31 -60 -37 -67 -7 -7 -13 -17 -13 -22 0 -10 -97
-108 -139 -140 -18 -14 -45 -34 -59 -46 -41 -32 -142 -95 -142 -88 0 4 -6 2
-12 -3 -32 -25 -78 -32 -113 -17 -29 12 -35 19 -35 45 0 39 26 84 57 98 12 6
23 15 23 20 0 4 24 18 53 30 99 42 111 51 122 99 2 9 10 37 18 62 20 65 14 81
-26 69 -36 -11 -57 -17 -89 -24 -54 -11 -77 -28 -92 -66 -9 -21 -16 -42 -16
-47 -2 -17 -68 -75 -107 -93 -61 -28 -99 -25 -134 10 -16 16 -29 35 -30 43 0
7 -2 21 -4 32 -4 23 29 84 61 108 13 11 31 26 38 34 8 8 17 14 20 14 3 0 32
16 64 35 62 36 66 43 86 150 2 11 11 46 19 78 15 55 14 87 -2 87 -3 -1 -59
-56 -123 -123z m827 -294 c-21 -49 -23 -51 -68 -58 -43 -7 -47 4 -17 50 19 29
44 42 83 44 16 1 16 -1 2 -36z"/>
<path d="M7894 11959 c-32 -34 -33 -62 -3 -95 10 -11 19 -25 19 -30 0 -6 13
-21 30 -34 16 -14 29 -30 30 -37 0 -6 4 -13 8 -15 15 -6 285 -354 402 -519 99
-138 102 -141 176 -97 37 22 36 31 -13 93 -35 45 -35 44 -97 130 -33 44 -73
96 -90 115 -17 20 -40 48 -51 64 -17 24 -97 129 -123 161 -4 6 -19 26 -32 44
-14 19 -35 46 -47 60 -11 15 -46 58 -77 96 -78 98 -75 95 -90 95 -7 0 -25 -14
-42 -31z"/>
<path d="M7447 11614 c-1 -2 -31 -4 -66 -5 -63 -2 -151 -25 -162 -42 -3 -5 -8
-8 -10 -6 -27 16 -239 -126 -239 -160 0 -5 17 -15 38 -21 20 -7 71 -30 112
-51 l75 -39 76 30 c41 16 86 31 100 33 13 3 44 10 69 17 25 7 55 14 68 16 12
2 34 7 50 10 91 19 370 5 411 -21 6 -3 14 2 18 11 14 37 -129 135 -262 179
-47 16 -271 55 -278 49z"/>
<path d="M4650 11420 c-95 -12 -165 -58 -219 -147 -35 -57 -48 -103 -61 -215
-18 -152 -36 -196 -110 -267 -43 -42 -94 -65 -230 -106 -107 -31 -214 -87
-287 -147 -42 -35 -47 -39 -188 -145 -49 -37 -95 -72 -102 -78 -34 -28 -43
-35 -48 -35 -3 0 -11 -5 -18 -10 -38 -33 -107 -80 -116 -80 -5 0 -11 -4 -13
-9 -6 -17 -187 -118 -261 -147 -42 -16 -75 -33 -73 -39 4 -14 91 -12 161 5 79
18 142 46 243 108 45 28 82 49 82 47 0 -3 -33 -26 -72 -52 -40 -26 -82 -56
-92 -65 -11 -10 -26 -18 -33 -18 -7 0 -13 -3 -13 -7 -1 -5 -32 -28 -70 -53
-38 -25 -70 -48 -70 -52 -1 -30 215 38 315 99 33 20 62 40 65 43 3 4 14 9 25
13 16 5 14 3 -5 -11 -13 -9 -56 -44 -94 -77 -82 -70 -71 -83 29 -36 36 17 71
31 78 31 8 0 17 3 20 7 4 3 21 8 39 10 29 3 42 5 93 16 18 4 40 7 165 22 19 3
59 7 89 10 68 6 116 19 216 56 116 44 161 74 237 154 32 33 58 106 52 145 -10
64 -34 95 -99 130 -36 19 -65 38 -65 42 0 12 73 -14 113 -40 62 -41 87 -85 82
-148 -5 -69 -32 -120 -103 -192 -85 -86 -218 -141 -422 -173 -30 -4 -66 -10
-80 -13 -14 -3 -38 -7 -55 -9 -16 -3 -64 -12 -105 -20 -67 -14 -108 -22 -175
-32 -19 -3 -51 -15 -133 -52 -20 -9 -39 -17 -42 -18 -7 -2 -311 -154 -330
-165 -13 -7 -225 -114 -287 -144 -13 -6 -23 -14 -23 -18 0 -5 -4 -8 -9 -8 -5
0 -30 -10 -57 -22 -27 -12 -51 -22 -54 -23 -19 -1 -90 -40 -90 -49 0 -6 15
-12 33 -13 17 -1 62 -5 99 -9 l67 -6 131 77 c72 42 134 75 136 72 6 -6 -38
-38 -86 -62 -19 -10 -37 -21 -40 -25 -3 -4 -25 -19 -50 -33 -25 -14 -54 -34
-65 -44 -11 -10 -40 -31 -65 -47 -97 -62 -240 -181 -240 -199 0 -12 82 0 159
23 41 12 83 23 94 26 52 10 183 85 237 136 20 19 130 109 165 135 6 5 18 14
28 22 9 7 17 9 17 4 0 -5 -15 -21 -34 -34 -43 -31 -204 -170 -266 -229 -58
-57 -232 -289 -224 -301 9 -15 54 1 138 47 43 24 82 44 87 44 5 0 9 5 9 10 0
6 5 10 11 10 34 0 203 144 271 230 15 19 27 32 28 28 0 -12 -102 -131 -149
-173 -25 -22 -60 -56 -79 -75 -35 -37 -77 -108 -68 -117 7 -7 98 50 171 107
126 98 194 184 335 420 34 58 66 107 71 108 5 2 9 9 9 15 0 31 207 217 240
217 6 0 10 4 10 9 0 11 90 47 148 60 40 8 44 7 59 -16 19 -28 33 -106 28 -155
-9 -103 -29 -206 -51 -265 -18 -49 -23 -76 -18 -102 12 -69 5 -224 -12 -252
-2 -4 4 -17 14 -29 l18 -23 48 26 c52 28 83 65 123 145 14 28 29 52 33 52 4 0
12 12 18 28 6 15 14 36 18 47 11 29 10 63 -2 125 -9 47 -8 62 7 98 10 23 21
42 24 42 3 0 4 -61 1 -136 -5 -133 -6 -137 -41 -201 -35 -64 -38 -91 -6 -77 9
4 37 8 64 8 l47 2 45 72 c43 69 45 75 44 146 -1 73 7 98 44 140 19 22 23 46 7
46 -13 0 -62 -30 -71 -44 -10 -13 -35 42 -44 94 -11 66 -9 264 3 286 6 10 36
29 69 41 86 32 86 32 118 52 17 11 38 20 48 20 9 1 17 5 17 10 0 5 9 13 20 16
12 4 30 16 40 28 11 11 20 18 20 14 0 -3 17 12 38 35 l39 41 7 -41 c3 -23 10
-42 14 -42 4 0 24 31 44 69 32 61 37 67 45 48 9 -19 11 -17 35 25 34 61 59
168 58 247 -1 80 -4 103 -14 119 -6 10 -1 11 17 6 l26 -6 -5 67 c-2 37 -1 72
3 78 4 7 8 18 9 25 4 25 65 70 133 98 115 47 201 88 201 96 0 4 6 8 13 8 14 0
47 31 47 44 0 4 -12 5 -27 2 -130 -28 -224 -43 -229 -35 -2 4 10 11 28 15 41
10 40 9 58 17 8 3 42 11 75 18 33 7 62 13 65 14 3 1 28 5 55 10 28 4 59 9 70
12 11 2 78 6 149 9 72 2 132 6 134 9 7 7 -118 66 -194 91 -84 28 -74 26 -209
53 -168 34 -261 67 -308 111 -26 25 -101 60 -128 60 -11 0 -28 4 -37 8 -9 5
-42 5 -72 2z m113 -191 c32 -39 19 -114 -27 -151 -55 -45 -147 6 -140 80 1 12
2 29 3 37 0 9 13 28 27 42 23 22 31 25 72 19 30 -4 53 -14 65 -27z m-720
-1410 c21 -62 32 -159 18 -159 -5 0 -27 -11 -47 -25 -20 -14 -40 -25 -44 -25
-8 0 -4 126 6 180 7 42 35 93 45 82 4 -4 14 -28 22 -53z"/>
<path d="M7685 11370 c-3 -6 -1 -11 4 -11 20 -3 26 -4 61 -17 104 -40 271
-134 315 -178 22 -22 37 -1 24 33 -5 12 -6 23 -3 23 6 0 -26 61 -40 75 -20 21
-63 46 -87 51 -40 9 -54 12 -54 14 0 13 -212 22 -220 10z"/>
<path d="M6914 11332 c-10 -14 -33 -44 -49 -66 -29 -40 -59 -96 -53 -101 2 -2
21 -5 43 -8 52 -8 186 -55 206 -73 8 -8 20 -14 25 -14 14 0 123 -85 179 -138
28 -27 86 -93 129 -148 97 -121 218 -241 298 -295 50 -34 248 -125 248 -114 0
2 20 -3 44 -10 50 -15 59 -10 70 40 3 17 8 39 11 50 2 11 7 34 10 52 7 31 7
32 -40 39 -26 3 -74 15 -106 24 -33 10 -59 17 -59 15 0 -8 -138 69 -175 98
-56 43 -165 167 -235 267 -87 125 -99 139 -164 203 -106 103 -211 169 -304
191 -59 14 -59 13 -78 -12z"/>
<path d="M7500 11352 c-19 -2 -64 -10 -99 -18 -109 -25 -120 -51 -33 -82 80
-29 115 -36 252 -47 92 -8 119 -12 168 -23 69 -16 191 -92 264 -164 37 -36 70
-62 74 -57 11 19 7 70 -10 106 -36 80 -350 255 -481 269 -16 1 -46 6 -65 11
-19 4 -51 7 -70 5z"/>
<path d="M7325 11183 c44 -44 119 -135 139 -170 1 -1 83 -11 156 -18 82 -7 99
-12 166 -45 69 -34 184 -139 184 -169 0 -13 100 -151 110 -151 12 0 20 15 24
47 24 189 25 214 8 243 -39 67 -158 162 -251 201 -65 27 -168 46 -299 54 -61
5 -103 10 -109 15 -2 2 -12 4 -23 5 -11 1 -21 3 -22 5 -2 1 -16 4 -33 6 -16 3
-43 12 -59 20 -53 26 -51 15 9 -43z"/>
<path d="M6814 11122 c-21 -3 -69 -84 -76 -127 -3 -18 2 -20 42 -18 142 6 243
2 287 -11 10 -3 34 -8 53 -11 19 -3 40 -11 47 -17 27 -22 13 18 -14 44 -30 27
-155 113 -163 111 -3 0 -15 3 -28 8 -32 12 -122 25 -148 21z"/>
<path d="M6758 10928 c-19 -16 -22 -30 -22 -81 0 -137 8 -265 19 -314 7 -29 9
-55 6 -59 -3 -4 1 -5 9 -2 8 2 17 18 21 34 4 16 10 41 13 57 9 37 22 34 30 -7
10 -54 75 -279 88 -303 10 -21 12 -21 24 -5 7 9 10 21 6 26 -9 16 -11 212 -2
227 14 21 20 10 34 -59 1 -7 7 -17 13 -23 8 -8 13 -2 18 23 4 18 11 41 16 50
9 17 12 16 44 -5 26 -16 35 -30 36 -52 2 -27 5 -71 8 -102 2 -24 16 -13 33 28
12 29 22 40 35 37 16 -3 18 -15 17 -101 0 -53 -5 -102 -11 -108 -14 -14 -37
-2 -57 32 -23 40 -42 33 -38 -15 3 -34 2 -37 -19 -34 -25 3 -36 30 -45 118 -6
52 -17 80 -29 69 -3 -3 -7 -39 -9 -80 -6 -101 -14 -129 -38 -129 -11 0 -22 8
-25 19 -5 21 -33 18 -33 -4 0 -7 -6 -18 -14 -24 -18 -15 -43 8 -52 47 -11 52
-15 62 -25 62 -14 0 -16 -45 -6 -110 4 -25 7 -47 6 -50 -1 -8 56 -126 76 -156
14 -22 21 -25 48 -19 44 10 131 17 202 17 82 -1 223 -10 232 -15 5 -3 26 -8
47 -11 75 -12 152 -38 239 -82 101 -51 110 -50 148 20 13 26 27 46 31 46 4 0
-1 13 -10 30 -12 20 -48 47 -114 82 -57 32 -101 62 -107 76 -9 19 -13 21 -31
10 -17 -11 -23 -9 -44 12 -13 14 -30 43 -38 66 -18 55 -31 57 -41 7 -10 -52
-41 -60 -58 -15 -10 25 -12 26 -23 10 -17 -24 -33 -23 -41 2 -7 24 -21 26 -32
5 -5 -8 -13 -11 -21 -6 -11 7 -11 17 -2 52 16 58 51 139 60 139 9 0 24 -49 21
-68 -1 -6 2 -20 8 -29 8 -16 11 -14 22 10 21 47 52 59 148 58 47 -1 110 5 139
13 29 8 53 14 55 14 10 1 57 23 57 26 0 3 -33 28 -72 55 -40 27 -84 60 -98 73
-52 50 -66 55 -137 51 -151 -9 -333 60 -436 165 -31 31 -75 82 -97 112 -74
103 -73 103 -118 105 -30 1 -49 -4 -64 -17z"/>
<path d="M7703 10907 c-62 -33 -70 -102 -19 -153 89 -89 228 21 148 117 -30
37 -94 55 -129 36z"/>
<path d="M7164 10866 c-17 -8 -40 -26 -52 -41 -23 -29 -29 -79 -12 -90 6 -4 8
-10 5 -15 -3 -5 4 -11 15 -15 11 -3 20 -11 20 -17 0 -6 3 -8 7 -5 3 4 12 2 20
-4 39 -33 131 -12 159 35 21 35 22 41 7 76 -26 62 -112 100 -169 76z"/>
<path d="M7824 10339 c-68 -20 -49 -46 81 -113 75 -38 79 -37 89 20 3 16 8 39
10 51 4 19 -2 23 -47 33 -79 18 -99 19 -133 9z"/>
<path d="M7688 10304 c-6 -5 -113 -13 -190 -14 l-27 0 30 -32 c26 -29 35 -58
29 -97 -1 -10 6 -12 25 -7 21 5 33 -1 68 -33 71 -66 90 -82 144 -117 95 -61
131 -52 172 42 34 76 24 90 -150 193 -21 12 -44 33 -53 46 -16 24 -36 32 -48
19z"/>
<path d="M7090 9889 c-36 -4 -82 -9 -102 -10 -54 -4 -59 -28 -20 -106 20 -40
45 -51 102 -45 115 12 475 2 500 -13 4 -2 30 -7 58 -10 45 -4 53 -2 67 17 25
36 18 48 -40 74 -194 85 -369 114 -565 93z"/>
<path d="M7763 9718 c-12 -17 -20 -35 -18 -38 3 -4 24 -12 48 -18 23 -6 60
-18 81 -27 36 -15 37 -17 20 -29 -18 -12 -163 -48 -244 -61 -121 -18 -399 -25
-502 -12 -40 5 -89 10 -108 12 -19 2 -44 6 -55 8 -11 3 -39 8 -62 12 -54 9
-48 25 23 60 30 15 54 29 54 31 0 3 -7 16 -16 29 -13 21 -22 24 -50 19 -86
-13 -176 -73 -194 -129 -11 -33 -7 -378 4 -435 10 -46 37 -59 182 -86 77 -15
104 -19 199 -28 33 -4 71 -9 85 -12 47 -11 329 -3 430 11 136 20 343 73 391
102 l34 19 -2 85 c-1 46 -5 147 -8 224 -4 77 -7 148 -7 158 1 9 -14 29 -32 43
-34 28 -188 94 -215 94 -9 0 -26 -15 -38 -32z"/>
<path d="M9328 9735 c-2 -1 -37 -5 -78 -9 -82 -7 -112 -11 -180 -26 -25 -5
-58 -12 -75 -15 -16 -3 -41 -7 -55 -10 -14 -3 -37 -7 -52 -10 -16 -3 -43 -8
-60 -11 -18 -4 -44 -8 -58 -10 -14 -1 -25 -3 -25 -4 0 -4 -205 -18 -292 -19
-48 -1 -40 -16 25 -48 60 -29 198 -157 220 -203 33 -71 35 -177 3 -244 -47
-99 -121 -140 -251 -140 -47 1 -115 3 -152 7 -38 3 -68 2 -68 -2 0 -24 320
-298 389 -332 14 -7 34 -20 44 -28 9 -8 20 -11 24 -8 3 4 12 2 19 -4 11 -9 59
-11 132 -6 12 1 22 6 22 11 0 5 3 7 6 3 4 -3 29 12 58 33 l51 39 17 -22 c9
-12 15 -24 12 -28 -9 -15 38 -59 64 -59 31 0 92 -21 92 -32 0 -4 6 -8 14 -8 8
0 47 -27 88 -60 40 -33 74 -56 76 -51 2 5 -15 41 -36 79 -37 65 -60 121 -67
160 -4 25 13 52 33 52 65 0 309 -134 402 -221 30 -28 80 -53 80 -40 0 19 -44
90 -99 159 -32 40 -64 85 -72 100 -8 15 -17 29 -20 32 -15 11 -69 112 -83 154
-20 59 -9 92 36 104 32 9 46 8 158 -4 30 -3 75 -7 100 -9 121 -9 242 -23 270
-30 8 -2 44 -7 80 -10 36 -4 69 -9 73 -12 5 -3 28 -7 50 -9 23 -2 85 -13 137
-24 52 -11 104 -22 115 -24 55 -10 238 -72 305 -103 41 -19 91 -41 110 -48 19
-7 70 -29 112 -49 42 -20 80 -36 83 -36 23 0 -51 84 -125 140 -18 14 -47 37
-64 51 -17 15 -56 39 -86 54 -30 15 -57 31 -60 34 -7 9 -232 120 -346 169
-104 46 -422 157 -506 178 -99 24 -381 120 -453 154 -121 58 -145 100 -92 157
24 27 141 88 186 98 46 10 38 22 -21 31 -51 7 -205 14 -210 9z"/>
<path d="M7139 9705 c-2 -2 -22 -6 -44 -9 -22 -4 -44 -11 -48 -15 -13 -13 79
-108 116 -120 52 -16 357 -18 386 -2 31 17 54 39 75 72 15 24 15 27 -4 44 -11
10 -20 16 -20 13 0 -3 -17 -2 -37 4 -36 8 -417 21 -424 13z"/>
<path d="M3720 9516 c-50 -47 -140 -166 -125 -166 2 0 -5 -24 -16 -52 -48
-120 -42 -193 26 -333 56 -116 85 -184 85 -200 0 -7 7 -18 15 -25 20 -17 22 5
10 106 -6 44 -4 54 18 80 38 46 48 70 38 96 -8 22 -7 137 2 188 3 14 -5 58
-18 98 -23 72 -24 109 -4 182 15 59 9 65 -31 26z"/>
<path d="M4490 9242 c0 -5 3 -12 8 -16 4 -4 7 -11 8 -14 0 -4 4 -23 8 -43 8
-39 -6 -110 -27 -131 -13 -13 -40 -74 -53 -118 -12 -38 -12 -70 -4 -125 10
-60 -3 -96 -54 -153 -20 -22 -36 -44 -36 -50 0 -6 -6 -12 -12 -15 -9 -2 -13
-27 -13 -78 0 -63 4 -81 28 -121 15 -27 24 -48 19 -48 -10 0 -65 67 -69 84 -1
6 -7 28 -12 49 -11 46 -7 74 19 130 34 75 32 99 -9 143 -40 43 -82 118 -100
179 -16 51 -32 85 -42 85 -5 0 -16 -16 -25 -36 -9 -20 -34 -47 -56 -61 -25
-17 -38 -33 -38 -48 0 -24 36 -100 58 -123 6 -7 12 -19 12 -25 -1 -16 -40 33
-65 80 -27 51 -37 56 -57 30 -21 -27 -22 -87 -3 -142 8 -21 12 -41 10 -43 -8
-9 -45 65 -46 93 -5 94 15 134 90 185 48 33 76 74 86 129 6 33 32 59 66 66 38
9 45 21 18 36 -25 13 -167 7 -177 -7 -4 -5 -40 -34 -79 -63 -40 -30 -73 -58
-73 -61 0 -4 -23 -19 -51 -34 -79 -44 -92 -74 -75 -181 11 -72 19 -152 18
-180 -8 -132 1 -154 101 -252 75 -73 150 -154 204 -220 17 -21 40 -49 52 -63
11 -14 25 -30 29 -36 5 -5 15 -21 22 -35 7 -13 18 -27 23 -31 10 -6 77 35 121
75 11 9 23 17 26 17 4 0 17 9 30 20 13 11 57 46 99 78 110 82 175 152 190 202
13 45 13 191 0 228 -30 80 -41 217 -25 317 18 120 18 136 1 182 -26 67 -145
186 -145 145z m-430 -803 c3 -3 41 -30 85 -59 44 -30 85 -59 91 -65 20 -20 44
-73 43 -97 l0 -23 -10 24 c-18 45 -51 81 -122 135 -96 73 -151 121 -117 104
14 -7 27 -16 30 -19z"/>
<path d="M6237 9150 c-86 -56 -268 -117 -404 -135 -93 -12 -141 -18 -250 -30
-174 -20 -328 -64 -458 -132 -53 -27 -151 -99 -175 -128 -14 -16 -13 -17 10
-10 14 4 39 15 55 24 17 9 35 16 40 16 6 0 15 3 20 7 30 19 168 44 236 43 61
-1 86 -6 132 -29 31 -15 58 -31 59 -34 10 -45 2 -116 -19 -172 -65 -171 -131
-376 -124 -383 4 -4 43 32 86 79 85 93 188 168 247 179 44 8 57 -9 65 -91 6
-57 15 -66 35 -34 7 11 18 20 25 20 7 0 13 4 13 8 0 16 62 44 85 38 19 -5 27
-1 36 16 15 29 86 116 119 146 14 13 58 48 98 79 41 30 72 56 70 58 -1 1 -32
5 -67 8 -56 4 -68 8 -87 32 -51 64 -28 141 76 260 83 94 144 179 139 194 -2 5
-30 -7 -62 -29z"/>
<path d="M7925 9043 c-38 -13 -79 -25 -90 -27 -11 -3 -42 -9 -70 -15 -57 -11
-119 -20 -152 -21 -14 0 -54 -31 -110 -86 -79 -77 -222 -194 -238 -194 -4 0
-21 -10 -38 -23 -18 -12 -41 -27 -52 -34 -11 -7 -51 -31 -89 -54 -62 -38 -309
-164 -396 -202 -54 -24 -197 -65 -275 -78 -82 -14 -234 -16 -356 -5 l-86 9 -5
-32 c-3 -23 0 -35 11 -41 21 -10 130 -42 157 -46 12 -1 30 -7 40 -12 11 -6 39
-13 64 -16 55 -6 81 -11 190 -36 116 -26 149 -31 270 -35 119 -5 163 5 270 59
111 57 345 217 445 304 249 218 471 429 569 541 65 73 53 82 -59 44z"/>
<path d="M6782 9033 c-7 -3 -38 -29 -69 -59 -31 -29 -80 -66 -110 -81 -58 -30
-70 -54 -25 -47 15 2 70 5 122 8 114 5 242 36 330 79 75 38 84 60 25 63 -22 1
-87 12 -145 23 -112 22 -109 22 -128 14z"/>
<path d="M8130 9011 c0 -5 7 -36 15 -68 9 -32 18 -73 21 -92 2 -18 6 -36 8
-40 10 -16 19 -104 21 -206 1 -94 -4 -148 -30 -280 -2 -11 -7 -33 -10 -50 -9
-48 -35 -134 -66 -222 -15 -46 -27 -83 -24 -83 3 0 -47 -144 -80 -230 -8 -19
-29 -78 -48 -130 -19 -52 -45 -117 -57 -145 -12 -27 -39 -97 -60 -155 -21 -58
-54 -143 -74 -190 -20 -46 -36 -89 -36 -95 0 -10 171 -120 225 -143 31 -14 81
-17 125 -7 32 7 90 13 210 19 169 10 254 17 285 23 51 10 115 42 141 70 73 79
224 326 224 367 0 8 -8 17 -17 20 -10 3 -55 41 -99 83 -104 99 -118 110 -183
150 -53 32 -167 79 -210 88 -13 2 -30 6 -39 9 -27 8 -74 17 -117 22 -22 3 -51
8 -65 11 -14 3 -38 7 -53 9 -58 4 -44 23 53 73 109 57 186 66 345 42 122 -18
138 -22 230 -51 177 -56 326 -59 397 -9 30 22 64 85 73 139 3 18 8 36 9 39 2
3 31 7 64 9 60 3 61 2 92 -37 32 -39 34 -40 84 -35 28 2 74 6 103 8 57 4 70
13 95 69 12 26 24 37 40 38 64 4 81 -1 109 -31 34 -36 68 -42 156 -28 81 12
99 22 114 61 11 31 18 36 61 45 35 7 53 6 61 -2 35 -34 85 -62 107 -61 133 10
166 16 183 36 9 12 17 30 17 40 0 27 40 49 93 51 40 2 51 -2 80 -30 32 -31 34
-31 102 -26 118 8 149 18 165 52 8 15 13 30 12 34 -2 9 23 16 79 22 43 5 49 3
79 -30 32 -36 33 -36 99 -30 148 13 164 19 186 72 9 21 22 34 37 36 39 6 88
-9 112 -34 19 -21 30 -25 77 -23 64 3 141 22 151 39 4 6 8 21 8 33 0 17 9 24
38 32 55 16 64 14 111 -20 38 -29 46 -31 94 -25 142 18 134 14 158 62 23 49
38 59 90 63 29 2 44 -4 70 -29 30 -27 40 -30 81 -28 l48 3 0 38 c0 30 -4 37
-19 37 -30 0 -34 29 -6 42 22 10 25 18 25 60 0 54 1 54 -84 37 -38 -8 -63 -19
-75 -35 -19 -25 -74 -50 -107 -49 -11 0 -29 7 -39 15 -13 11 -43 15 -107 15
-100 0 -146 -15 -165 -57 -12 -25 -53 -46 -80 -42 -7 1 -17 2 -21 3 -5 0 -21
11 -35 24 -28 23 -44 25 -142 13 -58 -7 -85 -15 -85 -24 0 -4 -11 -19 -24 -35
-20 -23 -32 -28 -87 -31 -57 -3 -66 -1 -86 20 -19 21 -29 24 -81 20 -110 -8
-152 -17 -163 -37 -21 -39 -137 -67 -156 -37 -18 29 -60 40 -129 35 -122 -10
-139 -16 -158 -52 -12 -22 -28 -35 -48 -39 -57 -11 -99 -6 -128 15 -26 20 -36
21 -102 14 -40 -4 -81 -7 -91 -7 -37 1 -67 -18 -81 -51 -11 -28 -19 -34 -47
-36 -62 -4 -71 -2 -95 20 -26 24 -75 29 -184 17 -69 -8 -88 -15 -95 -38 -9
-29 -39 -49 -79 -54 -34 -4 -43 -1 -68 26 -33 35 -45 37 -214 19 -17 -2 -64
-45 -64 -58 0 -21 -36 -33 -98 -33 -48 0 -61 3 -68 19 -5 11 -45 59 -89 107
-95 104 -151 135 -232 129 -182 -12 -334 -91 -534 -277 -34 -32 -66 -58 -70
-58 -11 0 -1 77 18 135 10 28 18 52 18 55 1 3 16 34 33 70 34 71 105 182 176
273 47 60 56 91 34 119 -7 8 -49 41 -93 73 -44 32 -107 84 -140 116 -33 32
-73 69 -90 84 -16 15 -49 45 -72 67 -24 22 -43 35 -43 29z m3964 -637 c12 -32
6 -39 -40 -42 -42 -3 -45 -1 -42 20 3 21 13 26 69 37 4 0 10 -6 13 -15z m-386
-60 c-6 -35 -98 -38 -98 -3 0 18 8 21 65 32 26 5 38 -6 33 -29z m-409 -48 c16
-19 -3 -36 -42 -40 -37 -4 -61 11 -49 30 15 23 75 29 91 10z m-430 -48 c12
-30 0 -41 -48 -45 -32 -2 -40 1 -44 17 -4 15 2 24 21 35 39 21 61 18 71 -7z
m-444 -48 c16 -25 -5 -46 -48 -49 -40 -2 -44 0 -42 20 1 13 9 25 19 29 30 10
65 10 71 0z m-441 -65 c7 -19 -23 -35 -63 -35 -23 0 -31 5 -31 18 0 27 9 32
51 32 23 0 39 -5 43 -15z m-411 -45 c6 -25 -1 -30 -52 -34 -39 -3 -41 -2 -41
24 0 25 3 27 44 28 36 2 45 -1 49 -18z"/>
<path d="M7194 8980 c-18 -4 -45 -16 -60 -27 -82 -56 -245 -112 -347 -118
-117 -8 -166 -14 -212 -25 -22 -6 -50 -13 -62 -15 -39 -9 -303 -170 -318 -195
-5 -8 4 -10 30 -6 21 4 40 8 44 11 10 6 148 19 201 19 25 -1 79 -4 120 -8 41
-4 99 -8 127 -9 29 -1 53 -4 53 -7 0 -7 201 -4 220 3 8 3 33 11 55 18 72 22
210 106 300 183 78 66 155 148 152 161 -1 6 -48 11 -112 11 -60 1 -121 4 -135
6 -14 3 -39 2 -56 -2z"/>
<path d="M8060 8971 c-5 -11 -27 -40 -48 -65 -20 -24 -48 -61 -62 -80 -14 -20
-31 -44 -38 -54 -7 -9 -68 -98 -137 -197 -68 -99 -141 -202 -162 -229 -51 -66
-103 -146 -103 -157 0 -5 -4 -9 -8 -9 -5 0 -15 -12 -23 -27 -7 -16 -30 -54
-51 -85 -21 -31 -38 -66 -38 -78 0 -29 78 -129 106 -136 14 -4 39 1 58 10 19
9 38 16 43 16 14 0 187 91 273 143 41 25 94 55 116 67 52 26 102 73 115 108
17 43 39 171 45 252 10 162 11 189 3 246 -4 32 -11 81 -14 108 -4 27 -9 58
-11 70 -3 12 -8 37 -11 56 -6 32 -23 60 -37 60 -3 0 -10 -9 -16 -19z"/>
<path d="M7740 8683 c-51 -49 -128 -123 -171 -165 -89 -87 -161 -144 -266
-212 -40 -26 -73 -52 -73 -57 0 -7 25 -9 68 -7 37 2 81 1 97 -2 42 -9 78 6 97
38 9 15 27 39 40 53 13 13 57 70 98 124 41 55 78 102 83 103 4 2 7 9 7 15 1 7
30 48 65 92 61 75 77 105 56 105 -5 0 -51 -39 -101 -87z"/>
<path d="M8935 8639 c-6 -9 -85 -50 -105 -54 -3 -1 -21 -5 -40 -10 -19 -4 -62
-9 -95 -11 -33 -1 -63 -2 -67 -3 -11 -2 -175 -206 -202 -252 -38 -64 -112
-210 -120 -236 -4 -13 -4 -23 1 -23 4 0 41 31 81 69 40 38 99 86 130 107 31
22 59 42 60 47 2 4 9 7 17 7 7 0 18 7 25 14 10 13 88 45 130 53 120 24 151 25
214 9 67 -18 119 -50 137 -84 8 -14 16 -19 22 -13 13 13 -7 71 -56 161 -22 41
-52 109 -66 150 -25 73 -49 98 -66 69z"/>
<path d="M6377 8559 c-51 -12 -82 -34 -100 -70 -20 -42 -10 -76 30 -103 28
-19 44 -23 92 -20 89 5 130 27 147 79 31 93 -44 143 -169 114z"/>
<path d="M4670 8294 c-25 -19 -59 -47 -77 -62 -17 -15 -46 -38 -64 -52 -18
-14 -63 -50 -100 -80 -36 -30 -110 -88 -163 -129 -53 -41 -97 -77 -97 -80 -8
-36 -2 -56 28 -91 19 -22 32 -44 29 -49 -12 -19 -72 -18 -134 4 -61 21 -64 22
-144 5 -77 -16 -82 -18 -100 -53 -12 -24 -27 -39 -46 -43 -15 -3 -35 -8 -44
-11 -10 -2 -28 7 -43 21 -14 14 -37 29 -50 32 -22 5 -105 -8 -145 -23 -8 -4
-19 -5 -23 -4 -13 2 -38 -27 -42 -51 -7 -32 -17 -39 -74 -45 -44 -5 -57 -2
-89 20 -33 24 -44 26 -106 21 -82 -5 -110 -20 -126 -68 -10 -30 -16 -35 -58
-42 -59 -10 -84 -8 -98 11 -21 28 -64 36 -123 25 -103 -21 -117 -28 -136 -70
-10 -22 -25 -40 -34 -40 -9 -1 -33 -3 -53 -6 -21 -3 -38 -2 -38 3 0 5 -13 16
-29 26 -33 20 -122 17 -186 -6 l-40 -14 -3 -86 c-3 -84 -2 -86 28 -117 17 -17
34 -29 38 -27 4 3 27 8 52 11 25 3 59 10 77 15 17 5 34 7 36 4 3 -2 13 14 23
36 13 30 27 44 56 56 51 20 74 19 113 -5 18 -11 42 -17 56 -15 13 3 40 8 59
10 30 5 58 11 93 20 4 2 11 3 16 4 5 0 14 14 21 30 13 33 28 41 84 47 22 2 42
6 44 9 3 3 19 -4 36 -14 17 -10 40 -17 51 -15 11 2 36 5 55 8 63 7 110 18 110
25 0 3 10 18 23 32 28 33 105 46 147 24 20 -11 52 -13 119 -10 100 5 147 22
161 59 5 13 16 26 25 30 29 11 76 6 91 -9 19 -19 57 -19 164 0 47 8 86 15 86
15 1 0 7 14 14 30 10 24 23 33 64 45 87 24 86 24 151 -45 75 -81 104 -110 111
-110 12 0 70 45 84 65 8 11 26 31 41 45 33 32 154 139 255 225 116 99 166 154
159 175 -7 22 -128 174 -182 227 -18 19 -33 37 -33 41 0 16 -41 52 -58 52 -9
0 -37 -16 -62 -36z m-630 -628 c0 -13 -7 -27 -16 -30 -25 -10 -72 -7 -79 4 -9
15 12 38 38 43 50 10 57 7 57 -17z m-398 -69 c6 -12 5 -18 -4 -21 -7 -2 -28
-9 -46 -15 -27 -8 -34 -7 -39 4 -8 23 4 43 29 47 36 6 50 3 60 -15z m-412 -76
c0 -10 -7 -22 -16 -25 -18 -7 -64 -8 -64 -2 0 2 -3 11 -6 19 -6 16 11 24 59
26 20 1 27 -4 27 -18z m-390 -79 c0 -14 -11 -22 -40 -30 -35 -9 -42 -8 -50 8
-12 23 5 35 55 38 29 2 35 -1 35 -16z m-390 -56 c0 -2 3 -11 6 -19 4 -11 -5
-19 -33 -26 -59 -17 -73 -14 -73 13 0 20 6 25 33 29 55 7 67 7 67 3z"/>
<path d="M7235 8197 c-100 -30 -245 -126 -245 -162 0 -8 -6 -15 -12 -18 -7 -2
2 -11 20 -21 17 -9 32 -14 32 -12 0 3 20 -3 45 -14 52 -22 63 -21 129 14 27
14 54 26 60 26 6 0 27 5 47 10 28 8 44 23 73 66 20 31 39 67 42 80 5 21 2 24
-22 25 -16 1 -38 3 -49 5 -57 9 -93 9 -120 1z"/>
<path d="M5906 8175 c-10 -28 -7 -49 20 -131 14 -43 26 -83 28 -89 1 -5 19
-82 40 -170 57 -239 47 -224 141 -211 40 5 137 15 210 22 22 1 58 5 80 8 22 3
63 8 90 11 28 3 74 7 104 10 45 5 206 29 324 50 209 37 197 28 212 141 12 89
-14 109 -200 150 -60 14 -146 33 -190 44 -44 10 -92 21 -106 24 -14 2 -59 13
-100 25 -41 11 -114 29 -164 40 -118 25 -325 71 -350 78 -11 3 -45 7 -76 10
-46 4 -57 2 -63 -12z"/>
<path d="M6940 8100 c-8 -6 -39 -17 -67 -26 -48 -14 -73 -40 -40 -41 6 -1 33
-3 59 -6 33 -4 50 -1 59 9 6 8 8 14 3 14 -5 0 -4 4 3 8 15 9 21 44 8 48 -5 2
-17 -1 -25 -6z"/>
<path d="M8030 8074 c-17 -15 -84 -57 -148 -94 -100 -57 -117 -70 -119 -93 -2
-33 1 -33 131 -7 103 21 115 28 137 85 6 17 20 51 30 77 10 26 19 49 19 52 0
13 -20 5 -50 -20z"/>
<path d="M5874 7948 c-4 -18 -8 -40 -9 -48 -1 -8 -8 -28 -14 -45 -7 -16 -14
-37 -16 -45 -6 -27 -54 -160 -62 -172 -4 -7 -8 -17 -10 -23 -1 -5 -9 -29 -17
-52 -15 -41 -15 -46 10 -110 13 -37 36 -87 50 -110 14 -24 23 -43 20 -43 -2 0
15 -19 38 -42 64 -65 124 -160 168 -267 22 -53 40 -102 41 -110 1 -21 86 -104
149 -144 83 -53 185 -107 211 -113 77 -16 107 -20 147 -18 48 2 178 31 195 43
5 4 44 20 85 35 41 16 96 37 122 47 83 34 172 47 297 44 66 -2 124 -6 130 -9
5 -4 28 -9 51 -12 23 -3 49 -7 58 -9 9 -2 24 -4 32 -5 8 0 -3 -8 -25 -16 -98
-38 -125 -50 -210 -91 -198 -96 -301 -166 -425 -287 -107 -105 -162 -136 -242
-138 -85 -2 -128 3 -158 19 -35 18 -65 45 -79 71 -6 12 -16 22 -20 22 -12 0
-111 -149 -111 -166 0 -7 -3 -14 -8 -16 -4 -1 -25 -39 -46 -82 -29 -59 -36
-83 -29 -95 9 -14 150 -91 163 -89 3 1 23 -3 45 -9 45 -13 119 -24 186 -28 57
-4 123 -22 171 -46 52 -27 62 -24 93 24 34 51 200 217 218 217 7 0 24 10 38
23 79 70 263 141 419 162 24 4 47 8 50 10 7 4 158 17 235 20 71 3 72 3 48 20
-24 17 -112 40 -193 51 -62 9 -210 11 -225 5 -5 -3 -30 -6 -55 -7 -42 -2 -124
-20 -198 -43 -18 -5 -34 -10 -37 -11 -3 0 -10 -2 -17 -5 -7 -2 -43 -10 -79
-18 -79 -17 -102 -10 -67 22 35 34 146 105 213 137 33 16 62 32 63 37 2 4 8 7
14 7 5 0 24 7 41 15 52 23 170 66 197 71 23 4 65 13 100 21 49 12 137 21 216
22 85 2 95 0 150 -30 167 -91 377 -260 576 -463 84 -86 123 -110 79 -48 -12
17 -21 37 -21 45 0 9 -4 17 -8 19 -5 2 -30 37 -56 78 -27 41 -52 77 -55 80 -4
3 -41 48 -83 100 -41 52 -112 131 -157 175 -44 44 -81 83 -81 88 0 4 15 5 32
2 18 -4 54 -8 79 -10 105 -9 226 -34 332 -67 115 -36 193 -36 243 -1 16 11 40
24 53 28 21 6 51 28 87 63 7 6 16 12 21 12 4 1 31 21 58 46 28 25 65 58 84 73
69 53 327 317 343 351 15 30 15 38 2 68 -7 19 -26 43 -40 54 -62 49 -99 103
-130 189 l-13 39 52 25 c67 32 105 65 101 89 -1 10 -20 37 -42 60 -46 48 -152
207 -152 229 0 18 -30 31 -42 19 -5 -5 -11 -19 -13 -32 -11 -57 -40 -109 -65
-115 -80 -21 -150 -24 -225 -9 -76 15 -204 50 -253 69 -58 22 -198 46 -297 50
-84 3 -95 2 -153 -27 -35 -16 -61 -33 -57 -36 3 -3 34 -7 68 -9 94 -3 256 -59
366 -126 68 -41 196 -141 209 -162 4 -7 42 -36 85 -65 72 -49 80 -52 125 -47
26 3 59 8 75 12 26 7 27 5 27 -28 0 -41 -24 -114 -46 -138 -9 -10 -23 -31 -32
-48 -26 -48 -100 -119 -172 -165 -60 -39 -201 -98 -260 -110 -14 -3 -36 -7
-50 -11 -55 -12 -149 -21 -295 -30 -103 -6 -177 -13 -220 -23 -16 -4 -55 -6
-86 -5 -56 1 -89 14 -199 82 -54 33 -116 59 -214 92 -50 16 -100 34 -111 38
-11 5 -49 17 -85 26 -36 10 -104 32 -151 51 -133 52 -136 52 -193 0 -57 -52
-172 -112 -239 -125 -26 -5 -69 -7 -95 -4 -26 2 -54 5 -62 5 -8 0 -51 9 -95
20 -80 20 -155 59 -230 120 -67 55 -205 196 -205 211 0 7 -9 31 -20 52 -34 66
-68 176 -74 238 -8 88 -94 347 -115 347 -5 0 -13 -15 -17 -32z"/>
<path d="M4845 7796 c-47 -46 -106 -101 -131 -123 -26 -21 -59 -51 -75 -67
-28 -27 -28 -29 -13 -59 9 -17 31 -46 49 -64 33 -34 34 -34 52 -15 33 35 53
62 53 72 0 6 4 10 8 10 4 0 15 12 24 28 18 28 53 74 78 102 8 8 28 32 43 53
16 21 40 48 53 61 l25 23 -26 31 c-15 18 -33 32 -40 32 -8 0 -53 -38 -100 -84z"/>
<path d="M7638 7848 c-60 -23 -78 -34 -78 -49 0 -11 -11 -46 -24 -79 -14 -33
-22 -60 -18 -60 4 -1 29 -30 57 -65 27 -36 55 -65 61 -65 30 0 83 161 89 270
4 80 1 82 -87 48z"/>
<path d="M7847 7829 c-43 -9 -80 -18 -82 -20 -1 -2 -6 -45 -10 -96 l-7 -92 29
-6 c15 -4 37 -10 48 -15 51 -22 60 -21 78 10 10 17 15 30 11 30 -3 0 -2 6 4
13 11 12 32 70 58 155 l13 43 -32 -3 c-18 -1 -67 -10 -110 -19z"/>
<path d="M5004 7768 c-39 -38 -154 -180 -154 -191 0 -2 -25 -41 -55 -87 -29
-46 -51 -88 -48 -94 4 -5 12 -17 20 -26 32 -38 133 -179 133 -185 0 -3 12 -17
28 -30 35 -30 47 -20 68 54 23 84 68 225 74 231 3 3 7 14 8 25 4 23 52 117 81
160 12 17 21 39 21 50 0 19 -106 135 -124 135 -4 0 -28 -19 -52 -42z"/>
<path d="M7359 7647 c-90 -45 -97 -63 -64 -170 14 -46 25 -91 25 -100 0 -10 9
-43 20 -74 11 -31 18 -59 15 -61 -2 -3 0 -13 6 -23 5 -10 11 -32 13 -49 2 -17
13 -39 25 -49 20 -17 165 -69 167 -60 0 2 7 -1 15 -8 19 -15 63 -23 78 -14 7
5 34 66 61 136 56 146 57 137 -25 227 -22 23 -50 55 -61 70 -38 49 -119 141
-138 157 -10 9 -23 21 -30 27 -25 23 -46 21 -107 -9z"/>
<path d="M6998 7656 c-32 -7 -60 -15 -63 -18 -14 -13 26 -77 81 -131 58 -57
140 -105 217 -125 l38 -11 -5 52 c-2 29 -7 59 -9 67 -3 8 -8 27 -11 42 -4 18
-18 34 -38 44 -18 9 -49 34 -71 55 -41 42 -51 44 -139 25z"/>
<path d="M5205 7625 c-13 -15 -37 -53 -51 -84 -14 -31 -39 -84 -56 -119 -56
-119 -81 -212 -58 -212 6 0 38 28 73 61 58 58 129 118 173 146 10 7 37 24 58
39 22 14 50 30 63 35 13 5 23 13 23 18 0 5 -30 27 -67 50 -38 23 -82 53 -100
67 l-32 26 -26 -27z"/>
<path d="M6775 7599 c-3 -3 -16 -6 -30 -6 -63 0 -40 -28 40 -49 32 -9 86 -29
121 -45 96 -46 105 -35 32 41 -60 62 -65 65 -111 66 -26 0 -50 -3 -52 -7z"/>
<path d="M6528 7575 c-1 -1 -41 -6 -88 -9 -47 -4 -100 -9 -118 -11 -18 -3 -59
-7 -90 -10 -158 -13 -168 -26 -113 -140 44 -93 63 -106 162 -110 148 -5 411
-67 504 -118 11 -6 22 -12 25 -12 3 0 33 -14 66 -31 71 -35 89 -32 144 21 19
19 46 36 60 38 13 2 61 -10 106 -28 133 -52 163 -52 144 1 -9 24 -83 87 -160
136 -144 92 -169 107 -225 137 -61 34 -200 88 -245 96 -52 10 -68 14 -117 28
-28 9 -53 14 -55 12z"/>
<path d="M7721 7567 c-6 -8 -8 -17 -4 -20 3 -4 1 -7 -5 -7 -7 0 -12 -6 -12
-14 0 -7 -6 -19 -14 -26 -22 -18 3 -65 73 -137 22 -23 33 -10 63 77 26 76 30
119 10 106 -4 -2 -27 4 -51 15 -51 23 -46 22 -60 6z"/>
<path d="M4573 7368 c1 -165 -9 -373 -27 -548 -4 -37 10 -59 36 -55 13 2 39 6
58 9 19 3 49 9 65 12 17 3 55 9 85 13 l55 6 -1 35 c-1 19 -7 64 -13 100 -15
80 -18 103 -26 160 -22 162 -25 172 -83 245 -31 39 -77 91 -103 118 l-47 48 1
-143z"/>
<path d="M5415 7435 c-37 -19 -75 -41 -85 -50 -9 -8 -20 -15 -25 -15 -9 0 -81
-47 -101 -66 -6 -5 -31 -26 -54 -45 -80 -64 -160 -145 -160 -162 0 -9 22 -40
49 -69 27 -29 59 -65 71 -80 25 -32 44 -35 62 -10 7 10 36 35 63 57 28 22 52
43 55 46 19 24 269 134 328 144 44 8 67 13 67 15 0 2 40 7 83 11 46 4 41 24
-21 83 -55 54 -231 176 -252 176 -7 0 -43 -16 -80 -35z"/>
<path d="M7115 7390 c-3 -4 17 -22 44 -40 28 -17 51 -34 53 -38 4 -9 84 -72
91 -72 8 0 -16 74 -29 88 -7 6 -19 12 -28 12 -8 0 -18 5 -21 10 -4 6 -10 8
-14 6 -4 -3 -26 6 -49 19 -23 13 -44 20 -47 15z"/>
<path d="M8966 7315 c-9 -13 -16 -27 -16 -30 0 -13 -93 -150 -147 -216 -37
-46 -53 -74 -49 -85 6 -15 8 -15 26 1 11 10 20 15 20 12 0 -8 124 64 128 75 2
4 8 8 13 8 14 0 59 42 59 55 0 6 6 17 13 24 6 6 12 15 12 19 0 4 10 27 22 52
11 25 26 60 31 78 l11 32 -53 0 c-46 0 -56 -4 -70 -25z"/>
<path d="M6508 7214 c-16 -8 -30 -26 -34 -42 -3 -15 -7 -31 -9 -37 -5 -21 31
-66 68 -84 37 -19 41 -19 73 -3 75 38 59 123 -33 171 -27 14 -32 14 -65 -5z"/>
<path d="M5852 7148 c-30 -48 -98 -118 -180 -185 -105 -86 -109 -90 -210 -156
-103 -67 -104 -83 -3 -61 148 33 286 80 409 140 108 53 112 56 112 87 0 34
-56 153 -88 187 l-20 21 -20 -33z"/>
<path d="M5370 7041 c-31 -34 -41 -82 -26 -116 22 -48 71 -65 148 -54 19 3 48
66 48 104 0 40 -49 86 -98 92 -37 4 -45 1 -72 -26z"/>
<path d="M5933 6886 c-74 -40 -244 -108 -328 -131 -147 -42 -189 -52 -245 -61
-44 -7 -55 -17 -38 -35 30 -32 105 -137 127 -179 13 -25 32 -55 43 -66 18 -21
22 -21 71 -9 29 7 67 18 85 23 17 6 32 8 32 5 0 -3 6 0 13 6 8 6 22 12 33 14
10 2 29 9 42 15 12 7 22 10 22 8 0 -6 19 3 167 77 112 56 133 75 133 123 0 38
-36 197 -52 227 -13 25 -35 21 -105 -17z"/>
<path d="M7188 6745 c-2 -2 -25 -5 -51 -8 -56 -7 -210 -58 -258 -86 -29 -16
-82 -38 -184 -76 -17 -6 -14 -10 23 -27 41 -18 157 -45 231 -53 30 -4 89 20
111 45 13 14 122 78 185 109 98 48 97 48 133 56 72 15 12 36 -115 40 -40 1
-74 1 -75 0z"/>
<path d="M6136 6692 c-3 -6 -4 -41 -2 -78 11 -157 6 -522 -7 -628 -4 -38 19
-25 37 22 11 26 36 74 56 107 20 33 55 92 78 130 l41 70 -13 50 c-22 81 -49
147 -72 175 -7 8 -12 17 -11 20 0 3 -11 26 -26 51 -32 54 -72 95 -81 81z"/>
<path d="M6206 6678 c4 -7 19 -31 34 -53 26 -40 36 -60 84 -167 23 -53 44 -74
47 -48 2 13 6 29 9 33 3 3 17 65 25 110 5 24 0 31 -32 50 -21 12 -60 36 -87
54 -48 33 -94 45 -80 21z"/>
<path d="M6065 6571 c-21 -34 -414 -201 -474 -201 -9 0 -26 -6 -36 -14 -18
-13 -17 -15 10 -67 16 -30 42 -79 58 -110 16 -32 39 -67 52 -79 l23 -22 44 20
c51 22 160 96 204 138 163 153 161 150 158 253 -1 38 -5 74 -8 80 -9 13 -23
14 -31 2z"/>
<path d="M8260 6572 c0 -4 20 -29 44 -56 l44 -49 20 42 21 42 -27 10 c-34 13
-102 20 -102 11z"/>
<path d="M6441 6548 c-7 -18 -4 -40 9 -81 10 -31 22 -78 25 -104 12 -85 40
-110 125 -118 52 -5 160 26 160 46 0 5 6 9 14 9 20 0 148 128 144 143 -5 15
-63 43 -103 50 -17 3 -77 20 -135 37 -58 17 -133 33 -167 37 -60 6 -63 5 -72
-19z"/>
<path d="M7757 6544 c-1 -1 -20 -4 -42 -7 -80 -12 -111 -19 -163 -39 -42 -17
-56 -27 -67 -56 -8 -19 -15 -45 -15 -57 0 -21 4 -23 38 -20 35 3 167 -16 202
-29 8 -3 26 -7 40 -10 66 -11 220 -80 227 -101 2 -6 -50 -10 -139 -10 -209 -1
-284 -13 -423 -71 -56 -24 -62 -29 -87 -85 -16 -33 -28 -66 -28 -74 0 -8 -4
-15 -10 -15 -5 0 -10 -6 -10 -14 0 -8 -26 -70 -59 -138 -32 -68 -73 -157 -92
-198 -51 -111 -173 -350 -243 -475 -103 -182 -104 -187 -28 -216 45 -16 79
-21 163 -21 58 0 125 4 150 7 106 17 171 12 237 -17 35 -15 77 -38 94 -49 34
-25 39 -21 61 41 38 107 125 322 136 333 6 6 11 16 11 23 0 12 52 130 113 254
17 35 32 71 34 79 1 8 7 17 13 21 7 4 10 9 9 11 -5 7 178 368 240 473 22 39
70 107 82 116 15 12 46 86 41 99 -14 41 -276 226 -336 237 -35 7 -144 12 -149
8z"/>
<path d="M8440 6510 c-15 -16 -30 -40 -32 -54 -5 -23 0 -32 78 -131 28 -37 74
-100 104 -142 17 -24 35 -42 42 -40 12 2 121 155 155 218 11 19 20 46 21 62 1
22 -3 27 -21 28 -54 1 -92 11 -187 49 -55 22 -108 40 -116 40 -9 0 -28 -13
-44 -30z"/>
<path d="M9046 6515 c-18 -15 -36 -23 -45 -19 -9 3 -28 10 -42 15 -55 21 -116
-34 -81 -73 8 -10 22 -18 31 -18 34 0 77 -37 90 -78 14 -42 19 -45 131 -87 71
-27 94 -28 115 -5 22 24 43 25 90 3 23 -11 35 -24 35 -37 1 -59 31 -85 158
-135 43 -17 57 -19 75 -10 12 7 24 15 27 20 13 19 57 17 100 -4 38 -19 46 -28
53 -62 9 -48 23 -59 96 -81 31 -9 61 -20 66 -24 24 -19 74 -15 95 8 16 16 28
21 43 16 50 -15 76 -36 88 -68 11 -29 24 -40 88 -69 42 -19 84 -37 94 -41 9
-3 17 -14 17 -24 0 -10 9 -48 21 -83 l21 -64 -38 -34 c-22 -18 -55 -44 -74
-57 -51 -33 -251 -182 -280 -207 -14 -12 -38 -31 -55 -41 -35 -22 -228 -166
-235 -176 -3 -4 -32 -28 -65 -55 -33 -26 -62 -51 -65 -54 -4 -6 -64 -53 -148
-116 -7 -5 -21 -17 -30 -26 -9 -9 -41 -33 -69 -53 -29 -20 -61 -42 -70 -50
-29 -24 -98 -74 -263 -193 -85 -62 -166 -122 -180 -135 -14 -13 -43 -36 -65
-52 -22 -17 -42 -32 -45 -36 -3 -3 -39 -30 -81 -61 -41 -31 -84 -65 -94 -75
-10 -11 -34 -31 -52 -46 -19 -14 -30 -29 -26 -31 5 -3 53 2 108 11 l100 17
155 104 c85 57 164 112 176 122 11 11 26 19 32 19 7 0 12 4 12 9 0 4 18 20 40
35 23 15 49 34 58 42 43 39 324 244 487 356 39 26 75 51 80 56 6 4 73 55 150
113 77 58 177 134 221 170 45 35 94 73 109 84 16 11 33 25 39 30 24 22 126 95
133 95 4 1 24 14 43 30 27 24 37 27 46 18 17 -18 65 -140 118 -297 49 -144 48
-143 74 -149 18 -3 184 -3 188 1 3 3 -26 66 -99 217 -33 69 -61 127 -62 130 0
3 -11 28 -24 55 -36 78 -60 151 -52 163 3 5 30 28 59 50 49 36 57 39 85 30 62
-19 75 -20 100 -4 23 16 28 16 78 -2 49 -17 54 -21 67 -63 11 -35 22 -48 46
-59 17 -7 54 -24 83 -37 60 -27 91 -29 99 -8 14 36 114 5 114 -35 0 -26 27
-49 105 -89 63 -32 68 -33 111 -21 39 11 50 10 85 -5 37 -17 43 -26 51 -80 4
-24 115 -100 170 -117 31 -9 41 -8 62 6 30 19 44 20 79 4 27 -13 51 -53 42
-68 -8 -13 51 -54 134 -94 66 -31 75 -34 95 -21 18 12 26 12 65 -5 27 -13 41
-25 38 -33 -8 -22 4 -33 66 -60 l57 -26 0 119 c0 70 -4 121 -10 125 -6 4 -26
-3 -45 -15 -22 -13 -42 -19 -55 -15 -22 7 -22 6 -26 53 -3 45 -18 60 -92 94
-119 55 -138 59 -166 37 -30 -24 -28 -24 -76 6 -29 18 -40 32 -40 49 0 30 -59
81 -110 97 -19 6 -44 14 -55 19 -38 16 -50 17 -81 4 -44 -18 -86 8 -103 65
-11 37 -19 46 -59 63 -26 11 -67 30 -92 41 -48 21 -74 24 -130 13 -43 -9 -69
8 -72 47 -1 15 -6 27 -10 27 -4 0 -8 6 -8 14 0 15 -45 40 -120 66 -40 15 -49
15 -79 2 -38 -15 -82 -10 -118 13 -34 23 -15 52 75 113 236 157 231 152 225
256 -3 59 -25 103 -41 81 -4 -6 -25 -23 -47 -40 -22 -16 -42 -31 -45 -34 -3
-4 -34 -28 -70 -54 -36 -26 -92 -68 -125 -92 -33 -24 -64 -45 -68 -45 -4 0
-18 -9 -30 -21 -14 -13 -29 -18 -42 -14 -140 45 -160 47 -191 18 -21 -19 -31
-22 -53 -15 -14 5 -27 17 -29 28 -5 34 -24 74 -32 69 -4 -3 -10 1 -13 8 -3 7
-23 19 -46 27 -23 7 -41 17 -41 22 0 19 -63 168 -71 168 -5 0 -9 7 -9 15 0 20
-23 19 -49 -2 -20 -17 -20 -20 -6 -76 18 -65 14 -77 -21 -77 -13 0 -24 -4 -24
-8 0 -14 -48 -33 -55 -22 -4 6 -13 10 -21 10 -18 0 -38 19 -42 40 -12 53 -34
76 -95 98 -34 13 -72 28 -84 34 -17 9 -33 6 -72 -10 -40 -18 -54 -20 -80 -11
-26 9 -32 18 -37 50 -6 38 -10 41 -98 84 -50 25 -100 47 -111 49 -11 2 -24 6
-30 7 -5 2 -22 -5 -36 -14 -15 -10 -39 -16 -53 -14 -37 4 -89 45 -82 64 13 33
-53 72 -219 130 -5 2 -23 -8 -39 -22z m126 -123 c25 -16 26 -20 14 -37 -14
-19 -15 -19 -50 0 -34 19 -44 34 -29 48 11 12 37 7 65 -11z m400 -153 c24 -13
12 -49 -17 -49 -23 0 -85 19 -85 26 0 2 5 13 12 23 12 20 50 20 90 0z m399
-161 c4 -6 4 -19 1 -30 -4 -17 -10 -19 -41 -13 -45 8 -55 17 -46 45 6 19 12
21 43 15 21 -4 40 -11 43 -17z m339 -152 c0 -8 3 -21 6 -29 4 -12 0 -14 -16
-10 -22 6 -44 36 -33 47 12 12 43 6 43 -8z m379 -142 c-6 -7 -15 -11 -21 -8
-5 3 -4 12 3 20 6 7 15 11 21 8 5 -3 4 -12 -3 -20z m-174 -12 c6 -4 17 -20 25
-37 8 -16 16 -33 18 -37 2 -5 -3 -8 -10 -8 -8 0 -24 20 -36 45 -21 43 -20 54
3 37z m664 -187 c13 -13 12 -17 -3 -34 -16 -18 -19 -18 -49 -3 -42 20 -40 17
-32 42 6 19 12 21 38 16 18 -4 38 -13 46 -21z m332 -150 c25 -14 28 -18 18
-36 -6 -12 -17 -18 -26 -15 -8 3 -18 6 -23 6 -5 0 -16 7 -25 16 -12 12 -13 19
-4 30 15 18 23 18 60 -1z m361 -188 c4 -6 2 -19 -3 -28 -9 -17 -11 -17 -39 -1
-32 18 -37 31 -18 50 12 12 46 0 60 -21z m354 -178 c39 -24 39 -23 19 -43 -13
-12 -21 -13 -43 -4 -45 19 -57 34 -42 52 16 21 26 20 66 -5z"/>
<path d="M7343 6437 c-18 -6 -33 -15 -33 -19 0 -4 -7 -8 -15 -8 -30 0 -14 -17
27 -29 95 -29 108 -25 108 37 0 29 -3 32 -27 31 -16 -1 -43 -7 -60 -12z"/>
<path d="M7178 6344 c-35 -19 -71 -37 -80 -41 -19 -6 -24 -19 -10 -26 4 -2 54
8 112 22 113 28 129 43 73 66 -30 13 -36 12 -95 -21z"/>
<path d="M6084 6292 c-6 -4 -27 -38 -46 -77 -63 -125 -141 -248 -185 -293 -18
-19 -17 -24 21 -94 19 -35 40 -84 46 -110 7 -26 20 -54 30 -63 18 -16 20 -14
46 37 27 54 76 188 69 188 -3 0 0 11 5 25 5 14 12 46 15 72 4 27 8 55 10 63 2
8 7 53 10 100 4 46 7 87 7 90 0 3 0 20 -1 38 -1 32 -7 38 -27 24z"/>
<path d="M8270 6241 c-21 -25 -35 -49 -61 -101 -12 -25 -32 -58 -44 -75 -12
-16 -25 -37 -28 -45 -4 -8 -17 -31 -29 -50 -22 -37 -45 -79 -122 -224 -26 -49
-52 -96 -57 -105 -11 -21 -83 -184 -149 -341 -29 -69 -56 -132 -61 -140 -4 -8
-20 -53 -35 -100 -15 -47 -29 -89 -33 -95 -3 -5 -7 -18 -8 -28 -2 -10 -9 -30
-17 -45 -8 -15 -17 -44 -21 -64 -7 -38 -2 -47 60 -96 22 -18 36 -5 71 66 16
31 61 112 101 180 40 67 73 126 73 130 0 4 11 19 25 34 14 15 25 30 25 33 0 9
63 99 73 103 4 2 7 8 7 14 0 6 24 44 53 85 68 97 200 277 207 283 3 3 10 13
15 22 16 27 135 188 182 246 48 60 50 66 25 103 -38 58 -215 231 -233 228 -2
0 -11 -9 -19 -18z"/>
<path d="M5980 6225 c-14 -17 -214 -161 -231 -167 -25 -8 35 -98 65 -98 15 0
66 45 66 58 0 5 9 17 20 27 11 10 20 24 20 32 0 7 4 13 9 13 8 0 81 130 81
144 0 11 -18 6 -30 -9z"/>
<path d="M8697 6167 c-22 -46 -25 -60 -17 -88 8 -27 22 -113 22 -139 1 -19 -7
-18 -46 5 l-45 26 -38 -38 c-21 -21 -87 -104 -147 -183 -60 -80 -115 -150
-122 -156 -8 -6 -11 -14 -7 -17 3 -4 1 -7 -5 -7 -7 0 -12 -7 -12 -16 0 -8 -4
-12 -10 -9 -5 3 -10 1 -10 -5 0 -9 -42 -72 -60 -90 -43 -43 -298 -447 -403
-640 -53 -97 -53 -102 5 -183 28 -40 54 -74 58 -77 26 -20 123 -209 138 -270
28 -115 23 -119 -50 -42 -30 31 -70 71 -89 87 -58 51 -178 135 -193 135 -17 0
-45 -37 -71 -92 -9 -21 -21 -38 -26 -38 -6 0 -6 7 0 18 5 9 12 34 15 56 4 21
8 42 11 46 16 26 -34 64 -72 54 -22 -6 -68 -76 -104 -159 -14 -33 -35 -80 -46
-105 -25 -55 -87 -229 -103 -290 -7 -25 -15 -52 -18 -60 -3 -8 -6 -19 -7 -25
-1 -5 -10 -32 -20 -60 -26 -77 -63 -206 -101 -355 -19 -74 -37 -142 -41 -150
-3 -8 -8 -24 -10 -34 -2 -11 -14 -60 -28 -110 -13 -50 -44 -172 -70 -271 -25
-99 -55 -207 -65 -241 -10 -33 -21 -76 -24 -95 -3 -19 -15 -70 -27 -114 -11
-44 -22 -86 -23 -93 -1 -7 -8 -18 -15 -25 -11 -10 -12 -8 -7 10 4 12 9 32 11
45 3 13 8 37 12 53 4 17 6 33 5 36 -2 9 27 169 32 178 2 3 7 25 10 47 7 45 6
42 35 179 26 124 79 331 176 690 27 100 64 215 139 430 43 121 84 243 93 270
8 28 20 56 25 63 6 6 8 12 5 12 -4 0 3 21 14 48 11 26 30 75 41 109 24 74 19
87 -45 98 -23 5 -44 9 -47 10 -10 3 -86 16 -120 20 -89 11 -242 5 -370 -16
-74 -12 -70 -12 -130 -28 -25 -7 -69 -15 -98 -16 -30 -2 -55 -5 -56 -7 -3 -3
-28 -86 -32 -103 -30 -135 -40 -248 -45 -515 -1 -57 -5 -117 -10 -132 -4 -15
-10 -65 -14 -110 -10 -140 -15 -192 -20 -218 -3 -14 -7 -45 -10 -70 -8 -69
-15 -118 -31 -208 -14 -83 -21 -123 -28 -177 -24 -164 -58 -371 -70 -420 -8
-33 -17 -73 -19 -90 -5 -26 -12 -63 -31 -153 -3 -13 -7 -31 -10 -40 -3 -9 -7
-35 -11 -57 -3 -22 -7 -47 -10 -55 -2 -8 -6 -26 -9 -40 -2 -14 -11 -54 -20
-90 -8 -36 -17 -76 -20 -90 -9 -54 -78 -314 -86 -330 -5 -9 -10 -28 -12 -43
-2 -14 -7 -29 -11 -33 -4 -4 -7 -15 -7 -24 0 -28 -51 -120 -76 -136 -30 -20
-58 -11 -88 29 -45 59 -49 144 -10 251 28 80 33 156 11 208 -16 39 -88 115
-129 137 -26 13 -73 7 -52 -7 17 -12 32 -79 28 -129 -8 -96 -44 -152 -125
-193 -32 -17 -64 -30 -71 -30 -26 0 -134 -58 -159 -86 -77 -84 -109 -175 -90
-258 12 -53 33 -85 151 -234 54 -68 75 -126 66 -182 -14 -89 -115 -92 -160 -5
-13 25 -12 42 10 115 l8 25 -30 -19 c-98 -63 -126 -124 -134 -301 -6 -138 -16
-171 -68 -227 -14 -15 -22 -31 -18 -35 8 -8 62 47 59 59 -2 5 2 8 7 8 6 0 10
6 10 13 0 20 54 47 106 53 27 3 52 8 56 10 5 3 20 7 34 10 30 6 114 44 129 59
10 9 15 32 17 75 0 8 5 21 11 28 5 6 6 12 2 12 -4 0 -2 7 5 15 7 8 9 15 6 15
-4 0 -1 7 7 15 17 16 66 23 85 11 7 -4 12 -2 12 4 0 6 10 8 26 4 19 -5 25 -3
20 4 -5 8 -2 10 8 6 9 -3 16 -1 16 6 0 6 5 8 10 5 6 -3 10 -1 10 5 0 6 5 8 10
5 6 -3 10 -2 10 2 0 8 44 28 75 35 6 1 19 10 29 20 10 9 23 15 28 12 4 -3 8
-1 8 5 0 5 8 8 18 6 9 -1 21 0 26 3 4 2 83 6 175 7 91 2 178 8 192 13 15 6 30
8 33 5 3 -4 6 -1 6 6 0 7 4 10 9 6 5 -3 12 -1 16 5 3 5 15 10 26 10 10 0 19 4
19 9 0 5 17 12 37 16 21 4 50 13 65 21 19 10 28 11 28 3 0 -8 4 -8 13 -2 16
14 164 9 200 -5 16 -7 33 -12 38 -12 5 0 9 -4 9 -8 0 -4 18 -22 41 -39 l41
-32 115 5 c63 2 120 1 126 -3 7 -4 18 -8 26 -10 22 -3 28 -20 25 -71 -3 -42
-10 -87 -14 -87 -1 0 -3 -21 -4 -48 -2 -26 -6 -50 -9 -53 -3 -4 1 -13 9 -21 8
-8 11 -20 7 -26 -4 -7 1 -6 11 2 18 15 53 89 48 104 -1 4 2 7 6 7 4 0 7 12 7
28 -1 15 3 38 7 51 6 17 5 27 -4 33 -10 6 -9 8 4 8 11 0 15 7 13 25 -1 14 2
25 7 25 5 0 8 6 6 13 -2 6 8 23 22 37 28 28 75 56 64 38 -5 -8 -2 -9 9 -5 10
3 17 2 17 -2 0 -5 9 -7 20 -4 12 3 20 0 20 -7 0 -10 3 -10 14 -1 10 8 16 9 21
1 7 -12 42 -9 64 4 10 6 12 5 7 -2 -8 -13 6 -16 18 -4 4 4 11 7 14 7 17 1 84
42 83 51 -1 5 2 9 7 10 4 0 15 4 24 8 9 4 22 5 27 1 6 -3 20 -1 32 6 17 8 20
8 14 -1 -5 -9 -1 -10 14 -5 13 4 21 2 21 -6 0 -9 4 -8 15 1 12 10 15 10 15 -1
0 -11 2 -11 8 -1 9 14 42 6 42 -10 0 -6 6 -8 14 -5 8 3 16 3 18 -1 3 -9 72
-52 81 -52 3 0 -5 11 -18 25 -14 13 -25 32 -26 42 -2 37 3 69 17 96 22 42 -3
35 -61 -18 -58 -52 -61 -49 -59 57 2 82 14 270 19 278 3 5 15 127 21 210 6 99
14 186 18 210 3 14 8 57 11 95 10 106 15 152 21 193 5 38 10 91 18 200 3 34 7
77 10 95 3 17 8 59 11 92 4 33 9 71 10 85 2 14 7 45 10 70 3 25 8 61 11 80 3
19 7 69 10 110 2 41 9 89 14 105 4 17 15 73 24 125 8 52 17 106 20 119 3 12 8
42 10 65 3 22 8 52 11 66 3 14 10 50 15 80 14 80 16 88 44 202 14 57 28 117
31 133 15 89 24 127 50 215 9 30 18 66 21 80 2 14 15 63 28 110 13 47 29 112
36 145 7 33 17 66 22 73 6 6 8 12 4 12 -3 0 0 16 9 36 8 19 14 38 13 42 -2 8
42 152 51 167 3 6 6 15 7 20 3 23 116 329 200 545 14 36 41 110 60 165 19 55
37 107 41 115 3 8 7 22 8 30 1 8 17 56 35 105 43 119 49 160 36 225 -3 14 -10
68 -17 120 -13 108 -29 172 -45 177 -6 2 -22 -21 -37 -50z m-1014 -3179 c-4
-7 -9 -22 -10 -33 -4 -30 -41 -255 -63 -385 -22 -133 -29 -171 -35 -181 -3 -4
-7 -24 -11 -45 -3 -22 -10 -44 -15 -50 -5 -6 -6 -13 -4 -16 3 -3 1 -16 -4 -30
-5 -14 -12 -42 -15 -64 -4 -21 -13 -61 -22 -89 -22 -75 -49 -209 -88 -435 -3
-14 -7 -41 -10 -60 -3 -19 -13 -69 -22 -110 -9 -41 -18 -84 -19 -95 -2 -11 -4
-21 -5 -22 -3 -3 -4 -7 -14 -53 -4 -19 -13 -62 -21 -95 -8 -33 -16 -71 -19
-85 -3 -14 -10 -43 -15 -65 -12 -48 -12 -47 2 -64 9 -11 9 -13 1 -8 -10 6 -22
-8 -29 -35 -2 -5 -4 -11 -5 -15 -1 -5 -2 -11 -2 -14 1 -11 -24 -6 -36 8 -7 7
-9 13 -5 13 4 0 9 16 10 36 1 20 5 44 9 53 7 17 7 18 19 96 4 28 9 59 12 70 4
21 19 97 29 150 6 33 43 211 49 236 2 9 6 34 9 55 4 22 8 46 11 54 5 19 13 57
30 145 7 39 20 97 29 130 8 33 22 94 31 135 9 41 18 82 20 90 1 8 8 33 13 55
6 22 13 51 16 65 4 22 34 150 41 175 1 6 3 12 3 15 1 3 8 28 17 55 8 28 17 67
20 87 3 20 10 49 15 63 6 15 8 31 4 36 -3 5 -1 9 4 9 9 0 29 61 38 115 2 11 6
36 9 55 8 49 13 60 25 60 6 0 8 -5 3 -12z"/>
<path d="M7245 6090 c-4 -6 -21 -16 -38 -24 -68 -29 -262 -190 -288 -238 -8
-15 -6 -18 11 -18 29 0 198 56 245 82 52 28 66 44 89 98 10 25 22 53 27 62 16
31 10 48 -15 48 -14 0 -28 -5 -31 -10z"/>
<path d="M9431 5778 c-82 -84 -197 -202 -256 -262 l-106 -109 -35 34 c-19 19
-80 78 -135 132 l-99 97 -2 -32 c0 -18 -1 -40 -2 -48 -2 -51 18 -85 100 -170
l86 -89 -64 -73 c-35 -40 -84 -98 -108 -128 -25 -30 -58 -70 -75 -89 -88 -98
-149 -171 -154 -184 -4 -12 89 0 105 14 6 5 14 6 17 2 4 -3 7 -1 7 5 0 7 6 12
13 12 7 0 40 27 73 60 32 34 79 80 103 103 24 23 75 73 113 110 l70 69 25 -24
c15 -12 78 -73 141 -135 66 -63 121 -109 129 -106 12 5 11 70 -2 139 -3 11
-52 65 -110 119 -58 53 -105 101 -105 106 0 13 195 214 424 438 80 78 97 101
79 101 -5 0 -23 14 -42 30 -18 17 -35 30 -37 30 -1 0 -70 -69 -153 -152z"/>
<path d="M7104 5820 c-36 -21 -239 -86 -299 -95 -22 -4 -56 -8 -75 -10 -47 -5
-119 -26 -126 -36 -2 -4 4 -52 15 -105 11 -54 18 -101 16 -104 -3 -4 3 -14 13
-23 17 -15 72 -16 175 -3 114 15 211 67 240 129 8 17 24 52 35 77 82 182 84
190 55 189 -10 0 -32 -9 -49 -19z"/>
<path d="M6599 5795 c0 0 -2 -9 -4 -20 -8 -40 25 -50 88 -26 15 6 27 13 27 15
0 18 -86 42 -111 31z"/>
<path d="M6549 5567 c-3 -18 -6 -25 -26 -69 -43 -94 -107 -193 -167 -255 -34
-36 -65 -72 -70 -80 -8 -14 11 -92 45 -183 5 -14 12 -38 14 -53 3 -15 7 -39
10 -54 15 -82 18 -100 20 -123 4 -38 3 -38 28 -60 18 -18 97 -61 117 -65 3 0
22 -7 43 -14 41 -14 81 -10 157 15 51 17 235 30 415 28 137 -1 207 -10 270
-34 14 -5 25 -7 25 -5 0 9 145 -48 209 -83 62 -33 147 -90 181 -120 48 -42
130 -127 130 -134 0 -4 7 -8 15 -8 8 0 15 3 15 8 0 13 -58 121 -92 171 -45 65
-185 199 -271 257 -39 27 -73 52 -75 57 -2 4 -8 7 -14 7 -6 0 -38 17 -72 38
-34 21 -77 44 -96 52 -19 7 -39 17 -44 21 -5 4 -18 4 -31 -1 -63 -24 -245 -31
-335 -14 -102 21 -229 65 -259 90 -70 58 -108 198 -80 294 7 25 12 47 12 50
-1 3 -4 25 -8 50 -15 103 -60 251 -66 217z"/>
<path d="M6930 5429 c-22 -9 -123 -29 -227 -45 l-31 -5 3 -172 c3 -174 7 -202
29 -210 18 -7 31 3 54 44 43 76 47 84 58 99 13 17 44 72 116 208 50 93 50 102
-2 81z"/>
<path d="M8690 5373 c0 -10 -6 -29 -13 -43 -7 -14 -21 -47 -31 -75 -10 -27
-22 -54 -26 -60 -4 -5 -24 -64 -44 -130 -21 -66 -42 -131 -47 -144 -5 -13 -8
-25 -6 -27 2 -3 39 28 82 68 42 40 84 77 92 82 16 9 46 73 39 84 -2 4 -7 52
-11 107 -4 55 -8 111 -9 124 -2 29 -26 42 -26 14z"/>
<path d="M6150 5112 c-26 -32 -93 -79 -165 -118 -38 -20 -102 -54 -141 -75
-39 -21 -136 -61 -215 -88 -212 -74 -345 -124 -422 -159 -38 -18 -71 -32 -73
-32 -3 0 -30 -11 -60 -25 -30 -14 -61 -25 -69 -25 -8 0 -15 -4 -15 -9 0 -5
-18 -16 -39 -24 -22 -9 -66 -33 -98 -54 -32 -21 -74 -46 -93 -56 -36 -20 -218
-147 -242 -169 -7 -7 -36 -31 -63 -53 -73 -58 -233 -220 -287 -290 -25 -33
-54 -69 -65 -81 -27 -31 -62 -103 -53 -109 9 -5 45 24 134 108 56 53 286 211
360 248 33 17 69 35 79 40 40 22 177 73 242 91 195 54 237 55 337 5 83 -41
121 -77 170 -162 33 -57 71 -175 84 -260 3 -22 10 -59 15 -82 12 -58 21 -131
23 -205 3 -85 23 -84 53 2 12 36 38 94 57 130 19 36 44 85 57 110 13 24 29 49
35 55 6 5 25 30 41 55 39 57 92 114 120 129 29 15 49 6 66 -32 14 -29 35 -130
35 -167 1 -65 13 -193 20 -207 10 -18 15 -7 48 114 9 35 23 68 30 74 8 6 14
16 14 21 0 16 76 122 108 149 37 34 66 43 91 29 20 -10 74 -114 117 -225 13
-33 24 -58 24 -55 6 25 9 94 15 307 3 136 8 263 10 280 12 86 26 163 40 213 8
30 13 55 12 55 -110 62 -118 66 -133 51 -25 -26 -82 -36 -122 -23 -27 9 -47
27 -77 70 -39 57 -40 61 -42 151 -2 79 2 106 28 187 17 52 33 102 36 112 7 22
-8 22 -27 -1z"/>
<path d="M8716 4854 c-22 -8 -51 -16 -65 -19 -54 -9 -127 -27 -141 -34 -21
-11 -88 -151 -105 -221 -2 -8 -10 -32 -19 -52 -9 -21 -16 -47 -16 -58 0 -23
-7 -23 135 1 59 9 140 26 160 33 6 1 28 6 50 11 78 15 100 34 97 84 -1 36 -13
170 -17 210 -8 68 -12 70 -79 45z"/>
<path d="M9709 4443 c-24 -40 -34 -69 -32 -93 3 -48 14 -142 18 -157 6 -18
-38 -49 -90 -64 -25 -7 -45 -18 -45 -23 0 -5 -3 -6 -7 -3 -3 4 -11 3 -17 -2
-6 -4 -38 -18 -71 -30 -54 -20 -117 -47 -240 -101 -46 -20 -338 -143 -405
-170 -25 -10 -77 -29 -117 -41 -40 -13 -69 -27 -66 -31 3 -5 11 -7 19 -4 7 3
15 2 18 -2 3 -4 21 -9 42 -10 20 -2 45 -7 54 -12 10 -5 19 -8 21 -6 2 2 20 6
39 9 19 3 73 20 120 37 47 17 93 33 104 35 10 2 23 8 30 13 6 5 76 35 156 67
80 31 164 66 187 76 23 10 44 19 47 19 2 0 33 13 68 29 35 15 72 32 83 36 29
10 85 15 86 7 0 -4 2 -27 4 -52 6 -67 12 -111 21 -145 8 -32 41 -85 62 -98 7
-4 24 -20 38 -33 32 -33 53 -26 49 18 -3 44 -15 119 -21 141 -4 11 -7 29 -9
40 -11 89 -17 131 -25 156 -10 35 -2 44 50 59 19 6 114 38 210 72 96 34 189
66 206 71 58 17 96 86 88 158 -5 47 -11 52 -42 36 -35 -19 -102 -47 -182 -78
-36 -14 -125 -50 -199 -81 -74 -31 -140 -56 -147 -56 -7 0 -13 8 -12 18 0 21
-20 165 -30 211 -4 19 -12 36 -18 38 -6 2 -27 -22 -45 -54z"/>
<path d="M8710 4469 c-30 -11 -64 -21 -75 -23 -11 -2 -38 -8 -60 -14 -22 -6
-58 -13 -80 -16 -82 -12 -110 -18 -118 -25 -7 -7 -63 -162 -71 -196 -1 -5 -5
-19 -9 -30 -6 -20 -15 -57 -24 -108 l-6 -29 54 27 c45 23 152 96 169 116 7 8
190 150 225 175 17 11 44 28 60 37 35 17 42 50 19 84 -17 27 -14 27 -84 2z"/>
<path d="M8799 4170 c-27 -24 -31 -32 -20 -39 8 -5 26 -7 40 -4 14 3 31 6 36
7 6 1 18 7 29 12 15 9 16 15 7 33 -16 30 -52 26 -92 -9z"/>
<path d="M8858 4115 c-3 -3 -44 -10 -149 -25 -36 -5 -72 -12 -80 -14 -8 -3
-33 -7 -56 -10 -74 -9 -228 -52 -247 -68 -6 -4 -20 -8 -31 -8 -18 0 -27 -13
-48 -67 -27 -70 -51 -153 -67 -233 -5 -25 -12 -53 -15 -62 -10 -26 10 -23 80
12 53 26 89 41 105 44 3 1 10 4 15 8 10 6 114 41 215 72 30 9 62 20 70 23 8 3
22 7 30 8 37 6 296 99 303 109 7 10 5 25 -9 105 -8 42 -44 101 -62 102 -9 0
-25 2 -34 4 -9 2 -18 2 -20 0z"/>
<path d="M8505 3691 c-95 -17 -355 -149 -355 -181 0 -8 12 -21 28 -27 94 -41
134 -57 187 -75 33 -11 67 -22 75 -24 8 -1 56 -14 105 -28 50 -14 104 -27 120
-30 17 -3 72 -13 124 -21 89 -16 292 -27 318 -17 13 4 10 43 -7 112 -5 19 -12
53 -15 75 -11 73 -35 159 -48 167 -7 4 -41 8 -77 9 -89 1 -179 7 -215 14 -16
4 -37 6 -45 7 -8 0 -31 4 -50 9 -58 14 -103 17 -145 10z"/>
<path d="M8153 3450 c-23 -9 -43 -54 -45 -100 0 -8 -6 -52 -13 -98 l-12 -82
96 -48 c53 -27 143 -67 201 -90 58 -24 113 -47 122 -52 10 -6 24 -10 32 -10 7
0 31 -8 52 -17 22 -9 44 -17 49 -19 6 -1 44 -12 85 -25 41 -12 77 -23 80 -24
3 0 14 -4 25 -7 11 -4 36 -9 55 -12 19 -3 46 -8 60 -11 22 -5 56 -9 197 -19
68 -5 69 -1 49 111 -15 82 -37 174 -63 266 -6 19 -4 19 -98 23 -38 2 -83 5
-100 7 -16 2 -55 8 -85 12 -51 7 -81 12 -105 19 -5 2 -28 6 -50 11 -88 17
-307 90 -427 142 -42 18 -78 33 -80 32 -1 0 -13 -4 -25 -9z"/>
<path d="M6291 3188 c-52 -81 -75 -106 -135 -152 -44 -33 -55 -37 -100 -35
-47 2 -113 35 -124 62 -2 4 -9 13 -16 20 -7 6 -17 21 -23 32 -11 19 -12 18
-23 -10 -12 -34 -16 -42 -33 -70 -40 -65 -67 -104 -93 -131 -141 -152 -234
-267 -303 -374 -33 -52 -65 -99 -69 -105 -4 -5 -9 -13 -10 -17 -2 -4 -12 -29
-23 -55 -35 -81 -69 -173 -69 -188 0 -26 18 -16 41 23 23 37 129 182 140 192
3 3 10 12 15 21 17 30 127 143 185 191 64 51 117 73 151 63 46 -14 101 -60
145 -122 25 -35 47 -62 49 -60 3 2 7 28 10 58 8 71 26 113 58 134 22 15 31 15
56 5 17 -7 30 -15 30 -19 0 -4 14 -22 31 -41 l32 -34 9 24 c11 31 44 187 53
255 3 28 8 62 10 75 2 14 6 42 9 62 3 20 13 67 21 105 9 37 18 79 21 93 2 14
7 33 10 43 11 36 -15 14 -55 -45z"/>
<path d="M8061 3062 c-6 -21 -13 -63 -17 -93 -3 -30 -7 -67 -8 -82 -4 -33 18
-45 94 -53 112 -12 327 -102 474 -199 38 -25 74 -45 80 -45 6 0 20 -7 30 -15
26 -19 122 -48 206 -61 19 -3 44 -8 55 -11 11 -3 63 -7 117 -8 144 -4 156 12
124 162 -7 34 -11 65 -8 67 2 3 -1 19 -8 36 -12 29 -15 30 -74 31 -33 0 -77 2
-96 5 -97 12 -126 15 -142 15 -10 0 -18 5 -18 10 0 6 -4 8 -9 5 -10 -7 -144
18 -163 30 -5 3 -20 7 -34 10 -30 5 -214 79 -264 105 -84 44 -268 122 -297
126 -30 4 -33 2 -42 -35z"/>
<path d="M10460 2853 c-20 -21 -40 -51 -44 -68 -10 -50 -23 -157 -25 -205 -2
-45 -15 -53 -83 -56 -34 -1 -101 -5 -148 -9 -47 -3 -112 -8 -145 -10 -33 -2
-94 -7 -135 -11 -41 -4 -94 -8 -117 -8 -24 -1 -43 -3 -43 -6 0 -3 -24 -6 -53
-7 -29 -1 -66 -4 -82 -7 -17 -4 -73 -9 -125 -12 -52 -3 -115 -7 -140 -9 -25
-3 -72 -8 -105 -11 -64 -6 -185 -42 -185 -54 0 -4 9 -10 20 -13 11 -3 23 -6
25 -7 3 -1 31 -8 62 -15 56 -13 104 -13 263 0 41 4 113 9 160 11 202 10 381
21 470 29 30 2 96 7 145 10 50 4 108 8 130 10 22 1 48 1 57 -1 17 -5 17 -13 4
-199 -3 -42 1 -60 31 -115 38 -69 59 -97 68 -89 7 7 12 55 20 169 12 189 15
215 28 227 8 9 50 15 113 18 54 2 140 7 189 10 168 12 220 14 405 20 213 6
311 12 346 21 27 7 127 130 118 146 -3 5 -51 6 -112 2 -59 -4 -131 -8 -159 -8
-29 -1 -53 -3 -53 -6 0 -3 -12 -5 -27 -6 -38 -1 -206 -15 -363 -30 -36 -3
-138 -8 -228 -10 -89 -2 -166 -6 -171 -9 -5 -3 -21 -1 -36 5 -26 10 -27 11
-20 83 3 39 8 88 10 107 16 151 16 150 -6 150 -11 0 -38 -17 -59 -37z"/>
<path d="M8171 2744 c-84 -35 -59 -170 33 -180 64 -8 93 15 101 81 10 77 -62
129 -134 99z"/>
<path d="M3538 2704 c-4 -3 -1 -23 7 -43 35 -87 43 -152 28 -226 -30 -152
-110 -260 -253 -344 -89 -52 -188 -125 -213 -158 -10 -13 -24 -29 -30 -36 -31
-32 -107 -159 -122 -203 -18 -52 -22 -157 -10 -215 4 -18 23 -72 43 -119 56
-137 51 -237 -18 -313 -73 -82 -156 -73 -205 23 -30 60 -31 88 -4 141 11 23
18 43 15 46 -10 10 -80 -20 -110 -48 -30 -27 -57 -73 -111 -192 -21 -45 -35
-61 -63 -75 -99 -46 -168 19 -166 159 1 80 31 150 91 214 65 70 151 188 171
235 26 63 45 191 37 257 -7 64 -64 214 -83 221 -8 2 -11 -4 -9 -19 8 -53 -60
-187 -126 -244 -23 -21 -66 -51 -94 -67 l-53 -30 0 -438 c0 -386 2 -439 16
-444 10 -4 13 -2 8 7 -6 9 -4 9 7 2 8 -5 32 -10 54 -10 22 0 46 -6 53 -13 8
-7 18 -10 23 -7 5 4 9 1 9 -4 0 -6 8 -11 18 -11 9 0 23 -13 30 -30 8 -17 18
-28 23 -24 5 3 9 -2 9 -10 0 -9 5 -16 10 -16 6 0 10 6 10 13 0 8 3 9 8 1 7
-11 72 -15 72 -4 0 3 11 7 26 8 14 1 34 7 45 12 10 6 19 7 19 3 0 -4 4 -3 8 2
16 22 80 46 130 49 12 0 22 4 22 8 0 3 14 5 30 4 17 -1 30 3 30 8 0 6 4 5 9
-3 5 -7 11 -9 14 -4 4 7 110 9 127 3 3 -2 9 -2 14 -1 4 1 14 -3 21 -9 10 -8
15 -8 20 0 5 8 11 8 21 -1 11 -9 14 -8 14 2 0 9 3 10 8 4 4 -6 32 -10 62 -10
30 0 58 -4 62 -10 5 -6 8 -5 8 4 0 11 3 11 15 1 8 -6 19 -9 25 -5 5 3 10 1 10
-4 0 -6 5 -11 11 -11 15 0 69 -52 69 -67 0 -7 5 -13 10 -13 6 0 10 -7 10 -15
0 -9 7 -18 15 -21 8 -4 15 -11 15 -18 0 -11 85 -91 98 -91 4 0 18 -8 32 -17
30 -21 110 -50 110 -41 0 4 5 2 11 -4 14 -14 95 3 131 28 14 11 31 19 36 19 6
0 17 8 24 18 21 30 90 69 123 69 17 1 57 4 90 8 33 4 78 8 100 10 22 2 40 4
40 5 0 2 37 4 82 5 45 2 86 6 92 9 6 4 11 4 11 -1 0 -4 25 -8 54 -8 67 0 83
-14 114 -105 33 -94 41 -107 75 -124 34 -16 70 -8 94 22 10 12 12 12 8 2 -4
-10 -2 -9 8 2 8 10 17 15 20 11 4 -3 7 -1 7 5 0 8 8 9 23 3 20 -7 123 -7 157
1 29 7 80 31 80 38 0 16 -14 17 -48 3 -73 -31 -178 -10 -230 45 -83 91 -97
190 -41 290 17 31 38 62 45 70 52 51 123 189 143 277 18 79 17 221 -3 290 -39
135 -141 291 -217 330 -34 18 -45 19 -32 3 19 -24 34 -88 34 -141 0 -112 -57
-191 -190 -261 -97 -52 -170 -113 -193 -161 -8 -16 -15 -61 -17 -100 -2 -88
-9 -121 -31 -166 -33 -63 -60 -76 -115 -53 -44 18 -58 45 -52 103 6 61 9 72
30 95 53 60 -22 27 -82 -37 -93 -97 -115 -156 -108 -279 3 -44 0 -94 -6 -114
-13 -43 -87 -128 -130 -150 -99 -52 -233 -11 -349 107 -79 81 -93 183 -41 309
38 94 76 141 183 230 100 83 169 159 196 218 32 68 34 82 36 189 0 72 -3 89
-31 146 -47 96 -60 102 -59 28 2 -84 -23 -135 -77 -161 -59 -29 -103 -26 -146
9 -41 34 -60 86 -54 152 9 107 23 136 101 216 101 104 140 186 151 315 6 79
-10 147 -58 245 -37 76 -123 183 -147 183 -6 0 -12 5 -14 11 -2 5 -6 7 -10 3z"/>
<path d="M8500 2549 c-80 -21 -302 -30 -370 -15 -133 29 -148 8 -165 -234 -16
-225 -10 -253 54 -244 14 2 60 6 101 10 41 3 83 10 93 15 9 6 17 8 17 5 0 -5
113 20 150 33 114 42 204 80 250 107 30 17 95 52 144 78 49 26 95 51 103 57 7
6 13 9 13 5 0 -3 19 5 43 18 23 13 61 29 85 36 23 7 42 17 42 21 0 10 -58 29
-92 29 -16 0 -64 7 -106 16 -42 9 -84 17 -94 19 -9 2 -49 17 -89 34 -84 35
-80 35 -179 10z"/>
<path d="M8950 2330 c-39 -7 -60 -17 -124 -60 -24 -17 -48 -30 -54 -30 -6 0
-12 -3 -14 -7 -1 -5 -27 -19 -55 -32 -72 -33 -70 -51 9 -66 43 -8 223 -57 233
-63 6 -4 37 -16 70 -28 116 -42 160 -59 165 -64 3 -3 11 -6 17 -7 7 -2 47 -19
88 -40 41 -20 78 -33 81 -30 7 7 -11 79 -53 212 -13 44 -26 88 -28 98 -2 9 -7
22 -10 27 -11 17 -91 49 -162 65 -37 8 -81 18 -98 23 -16 4 -46 5 -65 2z"/>
<path d="M8445 2098 c-237 -67 -279 -76 -384 -83 -35 -2 -66 -6 -68 -9 -11
-11 49 -26 125 -31 105 -8 111 -9 302 -50 58 -13 307 -79 319 -85 42 -20 208
-83 232 -87 58 -9 268 -116 388 -196 57 -38 75 -46 82 -36 5 8 7 21 4 29 -5
16 -15 78 -19 114 -1 12 -5 26 -8 31 -3 6 -9 28 -13 50 -12 61 -12 61 -19 81
-7 19 -142 87 -234 119 -44 15 -104 40 -134 56 -10 5 -24 9 -32 9 -8 0 -27 5
-43 12 -15 6 -31 12 -35 12 -3 1 -10 4 -14 9 -4 4 -19 7 -34 7 -14 0 -30 4
-35 9 -13 11 -157 48 -219 56 -27 3 -52 7 -55 9 -3 1 -51 -10 -106 -26z"/>
<path d="M10787 1978 c8 -24 17 -71 20 -106 7 -91 -21 -142 -146 -267 -55 -55
-106 -111 -113 -125 -7 -14 -16 -27 -19 -30 -3 -3 -19 -36 -35 -75 -23 -58
-28 -84 -28 -155 0 -85 22 -176 48 -203 20 -20 91 -168 105 -219 8 -27 19 -48
25 -48 8 0 8 -2 0 -8 -9 -5 -8 -11 2 -20 12 -11 14 -9 14 6 0 12 12 26 33 35
34 16 117 29 117 17 0 -6 19 -7 138 -12 23 -1 42 -4 42 -7 0 -3 14 -7 32 -7
18 -1 37 -9 45 -19 7 -10 14 -17 16 -14 7 10 39 105 40 117 0 6 4 12 8 12 8 0
22 67 24 117 3 61 -47 145 -135 230 -44 43 -90 92 -101 109 -28 45 -24 101 15
218 19 56 36 118 39 137 6 45 -16 130 -51 198 -26 53 -121 161 -140 161 -5 0
-3 -19 5 -42z"/>
<path d="M11884 1976 c-3 -8 4 -27 15 -43 19 -26 42 -110 37 -137 -11 -60 -48
-113 -160 -231 -102 -107 -134 -165 -140 -261 -8 -98 14 -162 108 -329 6 -11
23 -38 38 -60 33 -49 58 -137 65 -231 6 -85 -5 -130 -49 -195 -38 -56 -84 -79
-158 -79 -46 0 -54 4 -100 48 l-50 48 -4 80 c-4 89 -19 128 -65 167 -30 25
-98 53 -107 45 -2 -3 3 -22 12 -43 25 -60 9 -133 -40 -192 l-26 -30 31 3 c16
2 39 9 50 15 16 8 26 7 44 -5 14 -9 31 -16 40 -16 8 0 20 -9 27 -20 7 -11 18
-20 24 -20 7 0 20 -17 29 -37 22 -46 31 -55 73 -72 33 -14 119 -16 177 -6 17
3 59 8 94 11 83 8 119 24 181 81 55 51 90 77 90 69 0 -3 8 1 18 9 60 53 80 68
114 87 21 12 38 25 38 30 0 4 6 8 13 8 8 0 19 10 25 23 14 28 21 86 11 92 -8
6 12 67 30 89 7 9 20 16 27 16 25 0 16 39 -10 46 -13 3 -37 20 -52 37 -36 40
-39 100 -11 172 20 51 26 152 10 177 -28 46 -80 107 -92 108 -7 0 -11 -6 -8
-15 10 -25 -20 -115 -48 -145 -50 -52 -133 -22 -154 57 -12 41 -5 67 47 168
22 44 43 94 46 110 5 31 9 106 6 115 -1 3 -4 16 -6 30 -8 42 -53 132 -78 154
-35 32 -61 51 -72 53 -5 1 -26 9 -47 18 -32 13 -38 14 -43 1z"/>
<path d="M8215 1888 c-78 -38 -114 -118 -71 -156 38 -32 107 -46 165 -32 63
15 96 40 111 86 10 29 9 39 -4 59 -37 56 -133 77 -201 43z"/>
<path d="M8760 1719 c-103 -37 -219 -68 -264 -70 -25 -2 -46 -5 -46 -8 0 -3
-10 -6 -22 -7 -13 0 -52 -5 -88 -9 -59 -7 -174 -8 -350 -2 l-65 2 -16 -50 c-9
-27 -20 -77 -23 -110 -4 -33 -9 -84 -13 -113 -11 -106 -9 -122 21 -122 14 0
31 6 38 13 25 25 70 45 66 30 -1 -5 1 -24 5 -44 6 -31 12 -37 38 -41 17 -3 45
2 62 11 29 14 32 21 35 65 2 26 -2 62 -7 78 -6 17 -8 34 -6 39 9 14 70 -29
125 -89 62 -68 82 -80 124 -76 105 11 133 16 156 28 14 8 54 30 90 49 36 19
97 45 135 58 84 26 189 76 209 98 26 29 63 106 70 144 5 25 2 48 -9 71 -14 29
-26 37 -83 55 -82 25 -111 25 -182 0z"/>
<path d="M9073 1611 c1 -37 -7 -65 -34 -117 -43 -85 -112 -137 -239 -184 -165
-61 -209 -87 -251 -153 -43 -66 -49 -109 -26 -182 13 -44 33 -55 51 -30 25 34
152 41 233 13 29 -11 45 -12 52 -5 7 7 11 7 11 1 0 -6 48 -9 120 -9 69 0 120
-3 120 -9 0 -5 3 -6 7 -3 3 4 12 2 20 -4 23 -20 15 7 -19 62 -47 74 -44 117
17 249 75 165 74 266 -6 367 -48 60 -56 60 -56 4z"/>
<path d="M9936 1620 c-56 -36 -126 -113 -152 -166 -22 -46 -25 -61 -19 -111 3
-31 16 -83 27 -116 44 -128 -21 -254 -113 -218 -30 11 -89 68 -90 87 -2 18 -6
33 -9 37 -2 1 -4 22 -6 47 -4 56 13 135 32 151 20 16 8 28 -22 23 -114 -21
-189 -109 -220 -256 -24 -115 -71 -178 -133 -178 -11 0 -23 -5 -27 -12 -5 -7
-2 -9 9 -5 9 3 17 2 19 -3 2 -5 17 -10 33 -13 17 -2 44 -10 60 -17 17 -7 81
-14 150 -16 66 -2 134 -6 150 -9 17 -3 46 -8 65 -10 19 -2 35 -4 35 -6 0 -1
14 -3 30 -4 17 -2 30 -4 30 -5 0 -1 41 -3 92 -4 75 -3 97 -8 122 -26 18 -12
28 -26 24 -33 -3 -7 25 21 63 61 93 99 124 156 118 221 -7 83 -101 221 -178
261 -34 18 -96 77 -97 94 0 6 -3 20 -5 31 -11 50 -6 94 20 149 15 32 25 60 24
62 -2 2 -17 -5 -32 -16z"/>
<path d="M9212 1568 c21 -68 27 -104 22 -120 -7 -25 21 -23 76 6 66 34 62 58
-19 107 -81 49 -93 50 -79 7z"/>
<path d="M9317 1420 c-64 -31 -75 -41 -96 -84 -24 -48 -24 -49 -5 -63 10 -7
34 -13 54 -13 19 1 54 -1 77 -4 39 -4 45 -2 65 27 12 18 27 35 33 39 6 5 6 8
0 8 -5 0 -3 4 4 9 10 7 14 24 12 52 -4 80 -30 85 -144 29z"/>
<path d="M8175 1304 c8 -20 15 -64 15 -98 0 -54 -4 -68 -35 -114 -20 -28 -42
-52 -51 -52 -8 0 -13 -4 -10 -9 4 -5 0 -12 -6 -14 -8 -3 -7 -6 4 -6 17 -1 70
-44 69 -55 -1 -3 0 -7 0 -8 6 -13 5 -78 -2 -95 -6 -16 -4 -21 6 -19 52 8 114
121 119 216 5 91 -35 210 -88 263 -36 36 -39 34 -21 -9z"/>
<path d="M12481 1241 c-16 -38 -15 -96 3 -151 l15 -45 0 113 c1 61 -1 112 -3
112 -2 0 -9 -13 -15 -29z"/>
<path d="M9198 1232 c-27 -3 -36 -16 -46 -67 -16 -81 3 -144 53 -173 34 -21
57 -16 82 17 13 17 39 89 47 131 3 14 7 35 10 47 3 15 -1 24 -12 27 -35 11
-108 21 -134 18z"/>
<path d="M8405 1167 c-27 -4 -54 -12 -58 -16 -5 -5 -10 -35 -11 -67 -3 -71
-33 -156 -75 -217 -17 -25 -31 -48 -31 -51 0 -3 13 -6 30 -6 27 0 47 13 124
83 26 22 43 22 58 -3 14 -22 29 -25 45 -9 8 8 7 28 -4 72 -16 66 -12 159 7
182 26 31 -11 45 -85 32z"/>
<path d="M8033 1152 c-48 -4 -68 -22 -59 -56 14 -55 114 -49 152 9 30 45 10
55 -93 47z"/>
<path d="M12477 963 c-6 -16 -16 -31 -22 -35 -6 -5 -5 -12 5 -18 30 -20 40
-11 40 35 0 52 -6 56 -23 18z"/>
<path d="M9166 926 c7 -19 20 -21 30 -3 4 6 4 9 -1 5 -4 -4 -14 -3 -22 4 -11
8 -12 7 -7 -6z"/>
<path d="M8488 864 c-4 -3 -4 -12 -1 -20 3 -9 -1 -14 -12 -14 -9 0 -14 -4 -10
-9 3 -5 0 -13 -6 -17 -8 -4 -7 -9 2 -15 10 -6 8 -9 -8 -9 -20 0 -23 5 -23 35
0 29 -3 33 -17 28 -30 -11 -50 -41 -58 -86 -5 -23 -9 -45 -10 -49 -1 -5 -3
-11 -4 -14 -3 -13 -31 26 -31 44 0 30 -23 44 -54 32 -14 -5 -26 -7 -26 -4 0 4
-6 2 -12 -3 -7 -6 -21 -9 -31 -8 -10 2 -21 -3 -24 -11 -3 -8 -9 -11 -14 -8 -5
3 -9 -2 -9 -10 0 -9 -8 -16 -17 -16 -15 0 -14 -2 3 -15 18 -14 18 -14 -3 -8
-26 6 -30 -8 -8 -27 8 -7 13 -16 10 -19 -5 -9 65 -44 73 -36 3 3 0 5 -6 5 -7
0 -12 7 -12 16 0 8 -4 13 -9 9 -12 -7 -23 11 -27 45 -2 18 1 27 11 27 8 0 15
-4 15 -8 0 -5 6 -6 13 -4 17 7 31 -5 50 -40 9 -16 16 -25 17 -19 0 16 28 26
35 13 4 -5 1 -8 -5 -7 -7 2 -14 -4 -15 -13 -5 -27 29 -11 49 22 20 33 111 85
121 68 5 -6 11 -7 18 0 7 5 17 10 22 10 22 2 46 13 41 19 -3 3 1 14 11 24 9
10 13 18 8 18 -4 0 -3 6 2 13 5 6 9 23 9 37 -1 19 -7 26 -26 28 -14 2 -29 0
-32 -4z m-38 -104 c0 -5 -2 -10 -4 -10 -3 0 -8 5 -11 10 -3 6 -1 10 4 10 6 0
11 -4 11 -10z"/>
<path d="M10132 706 c-11 -24 -25 -47 -31 -50 -17 -11 -13 -41 8 -68 11 -13
23 -37 27 -52 3 -15 10 -24 15 -19 15 15 46 117 44 145 -2 33 -25 88 -36 88
-4 0 -17 -20 -27 -44z"/>
<path d="M10026 713 c3 -40 3 -40 15 -19 9 14 8 22 -3 33 -13 12 -15 11 -12
-14z"/>
<path d="M11095 687 c-6 -23 17 -91 35 -102 6 -4 7 1 3 12 -6 16 -5 16 10 4
10 -8 20 -11 24 -7 3 3 0 6 -8 6 -11 0 -11 2 1 10 11 7 11 10 2 10 -7 0 -10 5
-7 11 4 6 -1 17 -11 25 -11 9 -13 13 -6 9 19 -10 14 0 -13 23 l-25 22 -5 -23z"/>
<path d="M10610 573 c0 -7 1 -14 2 -15 2 -2 -7 -18 -20 -35 -13 -18 -20 -33
-16 -33 4 0 -5 -13 -21 -30 -37 -39 -57 -38 -90 5 -29 36 -67 54 -100 48 -26
-5 -155 -5 -180 0 -22 5 -48 -11 -40 -23 3 -5 1 -11 -3 -14 -21 -13 14 -146
38 -146 6 0 21 -9 33 -21 29 -27 103 -24 205 9 60 19 84 34 120 71 61 63 101
151 81 182 -6 10 -9 10 -9 2z"/>
<path d="M11146 564 c-5 -14 -4 -15 9 -4 17 14 19 20 6 20 -5 0 -12 -7 -15
-16z"/>
<path d="M11177 563 c-12 -12 -7 -19 15 -20 13 -1 18 1 13 5 -6 4 -13 11 -16
15 -3 4 -9 4 -12 0z"/>
</g>
</svg>
